<svg class="rich-terminal" viewBox="0 0 1482 928.4" xmlns="http://www.w3.org/2000/svg">
    <!-- Generated with Rich https://www.textualize.io -->
    <style>

    @font-face {
        font-family: "Fira Code";
        src: local("FiraCode-Regular"),
                url("https://cdnjs.cloudflare.com/ajax/libs/firacode/6.2.0/woff2/FiraCode-Regular.woff2") format("woff2"),
                url("https://cdnjs.cloudflare.com/ajax/libs/firacode/6.2.0/woff/FiraCode-Regular.woff") format("woff");
        font-style: normal;
        font-weight: 400;
    }
    @font-face {
        font-family: "Fira Code";
        src: local("FiraCode-Bold"),
                url("https://cdnjs.cloudflare.com/ajax/libs/firacode/6.2.0/woff2/FiraCode-Bold.woff2") format("woff2"),
                url("https://cdnjs.cloudflare.com/ajax/libs/firacode/6.2.0/woff/FiraCode-Bold.woff") format("woff");
        font-style: bold;
        font-weight: 700;
    }

    .terminal-15223449-matrix {
        font-family: Fira Code, monospace;
        font-size: 20px;
        line-height: 24.4px;
        font-variant-east-asian: full-width;
    }

    .terminal-15223449-title {
        font-size: 18px;
        font-weight: bold;
        font-family: arial;
    }

    .terminal-15223449-r1 { fill: #c5c8c6 }
.terminal-15223449-r2 { fill: #e0e0e0 }
.terminal-15223449-r3 { fill: #0178d4 }
.terminal-15223449-r4 { fill: #a5a5a5 }
.terminal-15223449-r5 { fill: #fea62b;font-weight: bold }
.terminal-15223449-r6 { fill: #6db2ff }
.terminal-15223449-r7 { fill: #ddedf9;font-weight: bold }
.terminal-15223449-r8 { fill: #004295 }
.terminal-15223449-r9 { fill: #9e9e9e }
.terminal-15223449-r10 { fill: #7ae998 }
.terminal-15223449-r11 { fill: #1e1e1e }
.terminal-15223449-r12 { fill: #191919 }
.terminal-15223449-r13 { fill: #0a180e;font-weight: bold }
.terminal-15223449-r14 { fill: #737373 }
.terminal-15223449-r15 { fill: #008139 }
.terminal-15223449-r16 { fill: #ffa62b;font-weight: bold }
.terminal-15223449-r17 { fill: #495259 }
    </style>

    <defs>
    <clipPath id="terminal-15223449-clip-terminal">
      <rect x="0" y="0" width="1463.0" height="877.4" />
    </clipPath>
    <clipPath id="terminal-15223449-line-0">
    <rect x="0" y="1.5" width="1464" height="24.65"/>
            </clipPath>
<clipPath id="terminal-15223449-line-1">
    <rect x="0" y="25.9" width="1464" height="24.65"/>
            </clipPath>
<clipPath id="terminal-15223449-line-2">
    <rect x="0" y="50.3" width="1464" height="24.65"/>
            </clipPath>
<clipPath id="terminal-15223449-line-3">
    <rect x="0" y="74.7" width="1464" height="24.65"/>
            </clipPath>
<clipPath id="terminal-15223449-line-4">
    <rect x="0" y="99.1" width="1464" height="24.65"/>
            </clipPath>
<clipPath id="terminal-15223449-line-5">
    <rect x="0" y="123.5" width="1464" height="24.65"/>
            </clipPath>
<clipPath id="terminal-15223449-line-6">
    <rect x="0" y="147.9" width="1464" height="24.65"/>
            </clipPath>
<clipPath id="terminal-15223449-line-7">
    <rect x="0" y="172.3" width="1464" height="24.65"/>
            </clipPath>
<clipPath id="terminal-15223449-line-8">
    <rect x="0" y="196.7" width="1464" height="24.65"/>
            </clipPath>
<clipPath id="terminal-15223449-line-9">
    <rect x="0" y="221.1" width="1464" height="24.65"/>
            </clipPath>
<clipPath id="terminal-15223449-line-10">
    <rect x="0" y="245.5" width="1464" height="24.65"/>
            </clipPath>
<clipPath id="terminal-15223449-line-11">
    <rect x="0" y="269.9" width="1464" height="24.65"/>
            </clipPath>
<clipPath id="terminal-15223449-line-12">
    <rect x="0" y="294.3" width="1464" height="24.65"/>
            </clipPath>
<clipPath id="terminal-15223449-line-13">
    <rect x="0" y="318.7" width="1464" height="24.65"/>
            </clipPath>
<clipPath id="terminal-15223449-line-14">
    <rect x="0" y="343.1" width="1464" height="24.65"/>
            </clipPath>
<clipPath id="terminal-15223449-line-15">
    <rect x="0" y="367.5" width="1464" height="24.65"/>
            </clipPath>
<clipPath id="terminal-15223449-line-16">
    <rect x="0" y="391.9" width="1464" height="24.65"/>
            </clipPath>
<clipPath id="terminal-15223449-line-17">
    <rect x="0" y="416.3" width="1464" height="24.65"/>
            </clipPath>
<clipPath id="terminal-15223449-line-18">
    <rect x="0" y="440.7" width="1464" height="24.65"/>
            </clipPath>
<clipPath id="terminal-15223449-line-19">
    <rect x="0" y="465.1" width="1464" height="24.65"/>
            </clipPath>
<clipPath id="terminal-15223449-line-20">
    <rect x="0" y="489.5" width="1464" height="24.65"/>
            </clipPath>
<clipPath id="terminal-15223449-line-21">
    <rect x="0" y="513.9" width="1464" height="24.65"/>
            </clipPath>
<clipPath id="terminal-15223449-line-22">
    <rect x="0" y="538.3" width="1464" height="24.65"/>
            </clipPath>
<clipPath id="terminal-15223449-line-23">
    <rect x="0" y="562.7" width="1464" height="24.65"/>
            </clipPath>
<clipPath id="terminal-15223449-line-24">
    <rect x="0" y="587.1" width="1464" height="24.65"/>
            </clipPath>
<clipPath id="terminal-15223449-line-25">
    <rect x="0" y="611.5" width="1464" height="24.65"/>
            </clipPath>
<clipPath id="terminal-15223449-line-26">
    <rect x="0" y="635.9" width="1464" height="24.65"/>
            </clipPath>
<clipPath id="terminal-15223449-line-27">
    <rect x="0" y="660.3" width="1464" height="24.65"/>
            </clipPath>
<clipPath id="terminal-15223449-line-28">
    <rect x="0" y="684.7" width="1464" height="24.65"/>
            </clipPath>
<clipPath id="terminal-15223449-line-29">
    <rect x="0" y="709.1" width="1464" height="24.65"/>
            </clipPath>
<clipPath id="terminal-15223449-line-30">
    <rect x="0" y="733.5" width="1464" height="24.65"/>
            </clipPath>
<clipPath id="terminal-15223449-line-31">
    <rect x="0" y="757.9" width="1464" height="24.65"/>
            </clipPath>
<clipPath id="terminal-15223449-line-32">
    <rect x="0" y="782.3" width="1464" height="24.65"/>
            </clipPath>
<clipPath id="terminal-15223449-line-33">
    <rect x="0" y="806.7" width="1464" height="24.65"/>
            </clipPath>
<clipPath id="terminal-15223449-line-34">
    <rect x="0" y="831.1" width="1464" height="24.65"/>
            </clipPath>
    </defs>

    <rect fill="#292929" stroke="rgba(255,255,255,0.35)" stroke-width="1" x="1" y="1" width="1480" height="926.4" rx="8"/><text class="terminal-15223449-title" fill="#c5c8c6" text-anchor="middle" x="740" y="27">Anvil</text>
            <g transform="translate(26,22)">
            <circle cx="0" cy="0" r="7" fill="#ff5f57"/>
            <circle cx="22" cy="0" r="7" fill="#febc2e"/>
            <circle cx="44" cy="0" r="7" fill="#28c840"/>
            </g>
        
    <g transform="translate(9, 41)" clip-path="url(#terminal-15223449-clip-terminal)">
    <rect fill="#242f38" x="0" y="1.5" width="12.2" height="24.65" shape-rendering="crispEdges"/><rect fill="#242f38" x="12.2" y="1.5" width="12.2" height="24.65" shape-rendering="crispEdges"/><rect fill="#242f38" x="24.4" y="1.5" width="61" height="24.65" shape-rendering="crispEdges"/><rect fill="#242f38" x="85.4" y="1.5" width="12.2" height="24.65" shape-rendering="crispEdges"/><rect fill="#242f38" x="97.6" y="1.5" width="585.6" height="24.65" shape-rendering="crispEdges"/><rect fill="#242f38" x="683.2" y="1.5" width="61" height="24.65" shape-rendering="crispEdges"/><rect fill="#242f38" x="744.2" y="1.5" width="597.8" height="24.65" shape-rendering="crispEdges"/><rect fill="#242f38" x="1342" y="1.5" width="12.2" height="24.65" shape-rendering="crispEdges"/><rect fill="#242f38" x="1354.2" y="1.5" width="0" height="24.65" shape-rendering="crispEdges"/><rect fill="#242f38" x="1354.2" y="1.5" width="97.6" height="24.65" shape-rendering="crispEdges"/><rect fill="#242f38" x="1451.8" y="1.5" width="12.2" height="24.65" shape-rendering="crispEdges"/><rect fill="#1e1e1e" x="0" y="25.9" width="12.2" height="24.65" shape-rendering="crispEdges"/><rect fill="#1e1e1e" x="12.2" y="25.9" width="475.8" height="24.65" shape-rendering="crispEdges"/><rect fill="#1e1e1e" x="488" y="25.9" width="12.2" height="24.65" shape-rendering="crispEdges"/><rect fill="#1e1e1e" x="500.2" y="25.9" width="12.2" height="24.65" shape-rendering="crispEdges"/><rect fill="#1e1e1e" x="512.4" y="25.9" width="951.6" height="24.65" shape-rendering="crispEdges"/><rect fill="#1e1e1e" x="0" y="50.3" width="12.2" height="24.65" shape-rendering="crispEdges"/><rect fill="#1e1e1e" x="12.2" y="50.3" width="97.6" height="24.65" shape-rendering="crispEdges"/><rect fill="#1e1e1e" x="109.8" y="50.3" width="378.2" height="24.65" shape-rendering="crispEdges"/><rect fill="#1e1e1e" x="488" y="50.3" width="12.2" height="24.65" shape-rendering="crispEdges"/><rect fill="#1e1e1e" x="500.2" y="50.3" width="12.2" height="24.65" shape-rendering="crispEdges"/><rect fill="#1e1e1e" x="512.4" y="50.3" width="951.6" height="24.65" shape-rendering="crispEdges"/><rect fill="#1e1e1e" x="0" y="74.7" width="12.2" height="24.65" shape-rendering="crispEdges"/><rect fill="#272727" x="12.2" y="74.7" width="12.2" height="24.65" shape-rendering="crispEdges"/><rect fill="#272727" x="24.4" y="74.7" width="146.4" height="24.65" shape-rendering="crispEdges"/><rect fill="#272727" x="170.8" y="74.7" width="305" height="24.65" shape-rendering="crispEdges"/><rect fill="#272727" x="475.8" y="74.7" width="12.2" height="24.65" shape-rendering="crispEdges"/><rect fill="#1e1e1e" x="488" y="74.7" width="12.2" height="24.65" shape-rendering="crispEdges"/><rect fill="#1e1e1e" x="500.2" y="74.7" width="12.2" height="24.65" shape-rendering="crispEdges"/><rect fill="#1e1e1e" x="512.4" y="74.7" width="951.6" height="24.65" shape-rendering="crispEdges"/><rect fill="#1e1e1e" x="0" y="99.1" width="12.2" height="24.65" shape-rendering="crispEdges"/><rect fill="#272727" x="12.2" y="99.1" width="12.2" height="24.65" shape-rendering="crispEdges"/><rect fill="#272727" x="24.4" y="99.1" width="170.8" height="24.65" shape-rendering="crispEdges"/><rect fill="#272727" x="195.2" y="99.1" width="280.6" height="24.65" shape-rendering="crispEdges"/><rect fill="#272727" x="475.8" y="99.1" width="12.2" height="24.65" shape-rendering="crispEdges"/><rect fill="#1e1e1e" x="488" y="99.1" width="12.2" height="24.65" shape-rendering="crispEdges"/><rect fill="#1e1e1e" x="500.2" y="99.1" width="12.2" height="24.65" shape-rendering="crispEdges"/><rect fill="#1e1e1e" x="512.4" y="99.1" width="951.6" height="24.65" shape-rendering="crispEdges"/><rect fill="#1e1e1e" x="0" y="123.5" width="12.2" height="24.65" shape-rendering="crispEdges"/><rect fill="#272727" x="12.2" y="123.5" width="12.2" height="24.65" shape-rendering="crispEdges"/><rect fill="#272727" x="24.4" y="123.5" width="170.8" height="24.65" shape-rendering="crispEdges"/><rect fill="#272727" x="195.2" y="123.5" width="280.6" height="24.65" shape-rendering="crispEdges"/><rect fill="#272727" x="475.8" y="123.5" width="12.2" height="24.65" shape-rendering="crispEdges"/><rect fill="#1e1e1e" x="488" y="123.5" width="12.2" height="24.65" shape-rendering="crispEdges"/><rect fill="#1e1e1e" x="500.2" y="123.5" width="12.2" height="24.65" shape-rendering="crispEdges"/><rect fill="#1e1e1e" x="512.4" y="123.5" width="951.6" height="24.65" shape-rendering="crispEdges"/><rect fill="#1e1e1e" x="0" y="147.9" width="12.2" height="24.65" shape-rendering="crispEdges"/><rect fill="#1e1e1e" x="12.2" y="147.9" width="475.8" height="24.65" shape-rendering="crispEdges"/><rect fill="#1e1e1e" x="488" y="147.9" width="12.2" height="24.65" shape-rendering="crispEdges"/><rect fill="#1e1e1e" x="500.2" y="147.9" width="12.2" height="24.65" shape-rendering="crispEdges"/><rect fill="#1e1e1e" x="512.4" y="147.9" width="951.6" height="24.65" shape-rendering="crispEdges"/><rect fill="#1e1e1e" x="0" y="172.3" width="12.2" height="24.65" shape-rendering="crispEdges"/><rect fill="#0178d4" x="12.2" y="172.3" width="475.8" height="24.65" shape-rendering="crispEdges"/><rect fill="#1e1e1e" x="488" y="172.3" width="12.2" height="24.65" shape-rendering="crispEdges"/><rect fill="#1e1e1e" x="500.2" y="172.3" width="12.2" height="24.65" shape-rendering="crispEdges"/><rect fill="#1e1e1e" x="512.4" y="172.3" width="951.6" height="24.65" shape-rendering="crispEdges"/><rect fill="#1e1e1e" x="0" y="196.7" width="12.2" height="24.65" shape-rendering="crispEdges"/><rect fill="#0178d4" x="12.2" y="196.7" width="134.2" height="24.65" shape-rendering="crispEdges"/><rect fill="#0178d4" x="146.4" y="196.7" width="195.2" height="24.65" shape-rendering="crispEdges"/><rect fill="#0178d4" x="341.6" y="196.7" width="146.4" height="24.65" shape-rendering="crispEdges"/><rect fill="#1e1e1e" x="488" y="196.7" width="12.2" height="24.65" shape-rendering="crispEdges"/><rect fill="#1e1e1e" x="500.2" y="196.7" width="12.2" height="24.65" shape-rendering="crispEdges"/><rect fill="#1e1e1e" x="512.4" y="196.7" width="951.6" height="24.65" shape-rendering="crispEdges"/><rect fill="#1e1e1e" x="0" y="221.1" width="12.2" height="24.65" shape-rendering="crispEdges"/><rect fill="#0178d4" x="12.2" y="221.1" width="475.8" height="24.65" shape-rendering="crispEdges"/><rect fill="#1e1e1e" x="488" y="221.1" width="12.2" height="24.65" shape-rendering="crispEdges"/><rect fill="#1e1e1e" x="500.2" y="221.1" width="12.2" height="24.65" shape-rendering="crispEdges"/><rect fill="#1e1e1e" x="512.4" y="221.1" width="951.6" height="24.65" shape-rendering="crispEdges"/><rect fill="#1e1e1e" x="0" y="245.5" width="12.2" height="24.65" shape-rendering="crispEdges"/><rect fill="#1e1e1e" x="12.2" y="245.5" width="475.8" height="24.65" shape-rendering="crispEdges"/><rect fill="#1e1e1e" x="488" y="245.5" width="12.2" height="24.65" shape-rendering="crispEdges"/><rect fill="#1e1e1e" x="500.2" y="245.5" width="12.2" height="24.65" shape-rendering="crispEdges"/><rect fill="#1e1e1e" x="512.4" y="245.5" width="951.6" height="24.65" shape-rendering="crispEdges"/><rect fill="#1e1e1e" x="0" y="269.9" width="12.2" height="24.65" shape-rendering="crispEdges"/><rect fill="#1e1e1e" x="12.2" y="269.9" width="61" height="24.65" shape-rendering="crispEdges"/><rect fill="#1e1e1e" x="73.2" y="269.9" width="414.8" height="24.65" shape-rendering="crispEdges"/><rect fill="#1e1e1e" x="488" y="269.9" width="12.2" height="24.65" shape-rendering="crispEdges"/><rect fill="#1e1e1e" x="500.2" y="269.9" width="12.2" height="24.65" shape-rendering="crispEdges"/><rect fill="#1e1e1e" x="512.4" y="269.9" width="951.6" height="24.65" shape-rendering="crispEdges"/><rect fill="#1e1e1e" x="0" y="294.3" width="12.2" height="24.65" shape-rendering="crispEdges"/><rect fill="#1e1e1e" x="12.2" y="294.3" width="146.4" height="24.65" shape-rendering="crispEdges"/><rect fill="#1e1e1e" x="158.6" y="294.3" width="329.4" height="24.65" shape-rendering="crispEdges"/><rect fill="#1e1e1e" x="488" y="294.3" width="12.2" height="24.65" shape-rendering="crispEdges"/><rect fill="#1e1e1e" x="500.2" y="294.3" width="12.2" height="24.65" shape-rendering="crispEdges"/><rect fill="#1e1e1e" x="512.4" y="294.3" width="951.6" height="24.65" shape-rendering="crispEdges"/><rect fill="#1e1e1e" x="0" y="318.7" width="12.2" height="24.65" shape-rendering="crispEdges"/><rect fill="#1e1e1e" x="12.2" y="318.7" width="475.8" height="24.65" shape-rendering="crispEdges"/><rect fill="#1e1e1e" x="488" y="318.7" width="12.2" height="24.65" shape-rendering="crispEdges"/><rect fill="#1e1e1e" x="500.2" y="318.7" width="12.2" height="24.65" shape-rendering="crispEdges"/><rect fill="#1e1e1e" x="512.4" y="318.7" width="951.6" height="24.65" shape-rendering="crispEdges"/><rect fill="#1e1e1e" x="0" y="343.1" width="12.2" height="24.65" shape-rendering="crispEdges"/><rect fill="#1e1e1e" x="12.2" y="343.1" width="475.8" height="24.65" shape-rendering="crispEdges"/><rect fill="#1e1e1e" x="488" y="343.1" width="12.2" height="24.65" shape-rendering="crispEdges"/><rect fill="#1e1e1e" x="500.2" y="343.1" width="12.2" height="24.65" shape-rendering="crispEdges"/><rect fill="#1e1e1e" x="512.4" y="343.1" width="951.6" height="24.65" shape-rendering="crispEdges"/><rect fill="#1e1e1e" x="0" y="367.5" width="12.2" height="24.65" shape-rendering="crispEdges"/><rect fill="#1e1e1e" x="12.2" y="367.5" width="475.8" height="24.65" shape-rendering="crispEdges"/><rect fill="#1e1e1e" x="488" y="367.5" width="12.2" height="24.65" shape-rendering="crispEdges"/><rect fill="#1e1e1e" x="500.2" y="367.5" width="12.2" height="24.65" shape-rendering="crispEdges"/><rect fill="#1e1e1e" x="512.4" y="367.5" width="951.6" height="24.65" shape-rendering="crispEdges"/><rect fill="#1e1e1e" x="0" y="391.9" width="12.2" height="24.65" shape-rendering="crispEdges"/><rect fill="#1e1e1e" x="12.2" y="391.9" width="475.8" height="24.65" shape-rendering="crispEdges"/><rect fill="#1e1e1e" x="488" y="391.9" width="12.2" height="24.65" shape-rendering="crispEdges"/><rect fill="#1e1e1e" x="500.2" y="391.9" width="12.2" height="24.65" shape-rendering="crispEdges"/><rect fill="#1e1e1e" x="512.4" y="391.9" width="109.8" height="24.65" shape-rendering="crispEdges"/><rect fill="#1e1e1e" x="622.2" y="391.9" width="719.8" height="24.65" shape-rendering="crispEdges"/><rect fill="#1e1e1e" x="1342" y="391.9" width="122" height="24.65" shape-rendering="crispEdges"/><rect fill="#1e1e1e" x="0" y="416.3" width="12.2" height="24.65" shape-rendering="crispEdges"/><rect fill="#1e1e1e" x="12.2" y="416.3" width="475.8" height="24.65" shape-rendering="crispEdges"/><rect fill="#1e1e1e" x="488" y="416.3" width="12.2" height="24.65" shape-rendering="crispEdges"/><rect fill="#1e1e1e" x="500.2" y="416.3" width="12.2" height="24.65" shape-rendering="crispEdges"/><rect fill="#1e1e1e" x="512.4" y="416.3" width="951.6" height="24.65" shape-rendering="crispEdges"/><rect fill="#1e1e1e" x="0" y="440.7" width="12.2" height="24.65" shape-rendering="crispEdges"/><rect fill="#1e1e1e" x="12.2" y="440.7" width="475.8" height="24.65" shape-rendering="crispEdges"/><rect fill="#1e1e1e" x="488" y="440.7" width="12.2" height="24.65" shape-rendering="crispEdges"/><rect fill="#1e1e1e" x="500.2" y="440.7" width="12.2" height="24.65" shape-rendering="crispEdges"/><rect fill="#1e1e1e" x="512.4" y="440.7" width="951.6" height="24.65" shape-rendering="crispEdges"/><rect fill="#1e1e1e" x="0" y="465.1" width="12.2" height="24.65" shape-rendering="crispEdges"/><rect fill="#1e1e1e" x="12.2" y="465.1" width="475.8" height="24.65" shape-rendering="crispEdges"/><rect fill="#1e1e1e" x="488" y="465.1" width="12.2" height="24.65" shape-rendering="crispEdges"/><rect fill="#1e1e1e" x="500.2" y="465.1" width="12.2" height="24.65" shape-rendering="crispEdges"/><rect fill="#1e1e1e" x="512.4" y="465.1" width="951.6" height="24.65" shape-rendering="crispEdges"/><rect fill="#1e1e1e" x="0" y="489.5" width="12.2" height="24.65" shape-rendering="crispEdges"/><rect fill="#1e1e1e" x="12.2" y="489.5" width="475.8" height="24.65" shape-rendering="crispEdges"/><rect fill="#1e1e1e" x="488" y="489.5" width="12.2" height="24.65" shape-rendering="crispEdges"/><rect fill="#1e1e1e" x="500.2" y="489.5" width="12.2" height="24.65" shape-rendering="crispEdges"/><rect fill="#1e1e1e" x="512.4" y="489.5" width="951.6" height="24.65" shape-rendering="crispEdges"/><rect fill="#1e1e1e" x="0" y="513.9" width="12.2" height="24.65" shape-rendering="crispEdges"/><rect fill="#1e1e1e" x="12.2" y="513.9" width="475.8" height="24.65" shape-rendering="crispEdges"/><rect fill="#1e1e1e" x="488" y="513.9" width="12.2" height="24.65" shape-rendering="crispEdges"/><rect fill="#1e1e1e" x="500.2" y="513.9" width="12.2" height="24.65" shape-rendering="crispEdges"/><rect fill="#1e1e1e" x="512.4" y="513.9" width="951.6" height="24.65" shape-rendering="crispEdges"/><rect fill="#1e1e1e" x="0" y="538.3" width="12.2" height="24.65" shape-rendering="crispEdges"/><rect fill="#1e1e1e" x="12.2" y="538.3" width="475.8" height="24.65" shape-rendering="crispEdges"/><rect fill="#1e1e1e" x="488" y="538.3" width="12.2" height="24.65" shape-rendering="crispEdges"/><rect fill="#1e1e1e" x="500.2" y="538.3" width="12.2" height="24.65" shape-rendering="crispEdges"/><rect fill="#1e1e1e" x="512.4" y="538.3" width="951.6" height="24.65" shape-rendering="crispEdges"/><rect fill="#1e1e1e" x="0" y="562.7" width="12.2" height="24.65" shape-rendering="crispEdges"/><rect fill="#1e1e1e" x="12.2" y="562.7" width="475.8" height="24.65" shape-rendering="crispEdges"/><rect fill="#1e1e1e" x="488" y="562.7" width="12.2" height="24.65" shape-rendering="crispEdges"/><rect fill="#1e1e1e" x="500.2" y="562.7" width="12.2" height="24.65" shape-rendering="crispEdges"/><rect fill="#1e1e1e" x="512.4" y="562.7" width="951.6" height="24.65" shape-rendering="crispEdges"/><rect fill="#1e1e1e" x="0" y="587.1" width="12.2" height="24.65" shape-rendering="crispEdges"/><rect fill="#1e1e1e" x="12.2" y="587.1" width="475.8" height="24.65" shape-rendering="crispEdges"/><rect fill="#1e1e1e" x="488" y="587.1" width="12.2" height="24.65" shape-rendering="crispEdges"/><rect fill="#1e1e1e" x="500.2" y="587.1" width="12.2" height="24.65" shape-rendering="crispEdges"/><rect fill="#1e1e1e" x="512.4" y="587.1" width="951.6" height="24.65" shape-rendering="crispEdges"/><rect fill="#1e1e1e" x="0" y="611.5" width="12.2" height="24.65" shape-rendering="crispEdges"/><rect fill="#1e1e1e" x="12.2" y="611.5" width="475.8" height="24.65" shape-rendering="crispEdges"/><rect fill="#1e1e1e" x="488" y="611.5" width="12.2" height="24.65" shape-rendering="crispEdges"/><rect fill="#1e1e1e" x="500.2" y="611.5" width="12.2" height="24.65" shape-rendering="crispEdges"/><rect fill="#1e1e1e" x="512.4" y="611.5" width="951.6" height="24.65" shape-rendering="crispEdges"/><rect fill="#1e1e1e" x="0" y="635.9" width="12.2" height="24.65" shape-rendering="crispEdges"/><rect fill="#1e1e1e" x="12.2" y="635.9" width="475.8" height="24.65" shape-rendering="crispEdges"/><rect fill="#1e1e1e" x="488" y="635.9" width="12.2" height="24.65" shape-rendering="crispEdges"/><rect fill="#1e1e1e" x="500.2" y="635.9" width="12.2" height="24.65" shape-rendering="crispEdges"/><rect fill="#1e1e1e" x="512.4" y="635.9" width="951.6" height="24.65" shape-rendering="crispEdges"/><rect fill="#1e1e1e" x="0" y="660.3" width="12.2" height="24.65" shape-rendering="crispEdges"/><rect fill="#1e1e1e" x="12.2" y="660.3" width="475.8" height="24.65" shape-rendering="crispEdges"/><rect fill="#1e1e1e" x="488" y="660.3" width="12.2" height="24.65" shape-rendering="crispEdges"/><rect fill="#1e1e1e" x="500.2" y="660.3" width="12.2" height="24.65" shape-rendering="crispEdges"/><rect fill="#1e1e1e" x="512.4" y="660.3" width="951.6" height="24.65" shape-rendering="crispEdges"/><rect fill="#1e1e1e" x="0" y="684.7" width="12.2" height="24.65" shape-rendering="crispEdges"/><rect fill="#1e1e1e" x="12.2" y="684.7" width="475.8" height="24.65" shape-rendering="crispEdges"/><rect fill="#1e1e1e" x="488" y="684.7" width="12.2" height="24.65" shape-rendering="crispEdges"/><rect fill="#1e1e1e" x="500.2" y="684.7" width="12.2" height="24.65" shape-rendering="crispEdges"/><rect fill="#1e1e1e" x="512.4" y="684.7" width="951.6" height="24.65" shape-rendering="crispEdges"/><rect fill="#1e1e1e" x="0" y="709.1" width="12.2" height="24.65" shape-rendering="crispEdges"/><rect fill="#1e1e1e" x="12.2" y="709.1" width="475.8" height="24.65" shape-rendering="crispEdges"/><rect fill="#1e1e1e" x="488" y="709.1" width="12.2" height="24.65" shape-rendering="crispEdges"/><rect fill="#1e1e1e" x="500.2" y="709.1" width="12.2" height="24.65" shape-rendering="crispEdges"/><rect fill="#1e1e1e" x="512.4" y="709.1" width="951.6" height="24.65" shape-rendering="crispEdges"/><rect fill="#1e1e1e" x="0" y="733.5" width="12.2" height="24.65" shape-rendering="crispEdges"/><rect fill="#1e1e1e" x="12.2" y="733.5" width="158.6" height="24.65" shape-rendering="crispEdges"/><rect fill="#1e1e1e" x="170.8" y="733.5" width="317.2" height="24.65" shape-rendering="crispEdges"/><rect fill="#1e1e1e" x="488" y="733.5" width="12.2" height="24.65" shape-rendering="crispEdges"/><rect fill="#1e1e1e" x="500.2" y="733.5" width="12.2" height="24.65" shape-rendering="crispEdges"/><rect fill="#1e1e1e" x="512.4" y="733.5" width="951.6" height="24.65" shape-rendering="crispEdges"/><rect fill="#1e1e1e" x="0" y="757.9" width="12.2" height="24.65" shape-rendering="crispEdges"/><rect fill="#1e1e1e" x="12.2" y="757.9" width="475.8" height="24.65" shape-rendering="crispEdges"/><rect fill="#1e1e1e" x="488" y="757.9" width="12.2" height="24.65" shape-rendering="crispEdges"/><rect fill="#1e1e1e" x="500.2" y="757.9" width="12.2" height="24.65" shape-rendering="crispEdges"/><rect fill="#1e1e1e" x="512.4" y="757.9" width="951.6" height="24.65" shape-rendering="crispEdges"/><rect fill="#1e1e1e" x="0" y="782.3" width="12.2" height="24.65" shape-rendering="crispEdges"/><rect fill="#4ebf71" x="12.2" y="782.3" width="475.8" height="24.65" shape-rendering="crispEdges"/><rect fill="#1e1e1e" x="488" y="782.3" width="12.2" height="24.65" shape-rendering="crispEdges"/><rect fill="#1e1e1e" x="500.2" y="782.3" width="12.2" height="24.65" shape-rendering="crispEdges"/><rect fill="#191919" x="512.4" y="782.3" width="12.2" height="24.65" shape-rendering="crispEdges"/><rect fill="#1e1e1e" x="524.6" y="782.3" width="719.8" height="24.65" shape-rendering="crispEdges"/><rect fill="#1e1e1e" x="1244.4" y="782.3" width="12.2" height="24.65" shape-rendering="crispEdges"/><rect fill="#1e1e1e" x="1256.6" y="782.3" width="12.2" height="24.65" shape-rendering="crispEdges"/><rect fill="#0178d4" x="1268.8" y="782.3" width="195.2" height="24.65" shape-rendering="crispEdges"/><rect fill="#1e1e1e" x="0" y="806.7" width="12.2" height="24.65" shape-rendering="crispEdges"/><rect fill="#4ebf71" x="12.2" y="806.7" width="158.6" height="24.65" shape-rendering="crispEdges"/><rect fill="#4ebf71" x="170.8" y="806.7" width="146.4" height="24.65" shape-rendering="crispEdges"/><rect fill="#4ebf71" x="317.2" y="806.7" width="170.8" height="24.65" shape-rendering="crispEdges"/><rect fill="#1e1e1e" x="488" y="806.7" width="12.2" height="24.65" shape-rendering="crispEdges"/><rect fill="#1e1e1e" x="500.2" y="806.7" width="12.2" height="24.65" shape-rendering="crispEdges"/><rect fill="#191919" x="512.4" y="806.7" width="12.2" height="24.65" shape-rendering="crispEdges"/><rect fill="#1e1e1e" x="524.6" y="806.7" width="24.4" height="24.65" shape-rendering="crispEdges"/><rect fill="#1e1e1e" x="549" y="806.7" width="378.2" height="24.65" shape-rendering="crispEdges"/><rect fill="#1e1e1e" x="927.2" y="806.7" width="292.8" height="24.65" shape-rendering="crispEdges"/><rect fill="#1e1e1e" x="1220" y="806.7" width="24.4" height="24.65" shape-rendering="crispEdges"/><rect fill="#1e1e1e" x="1244.4" y="806.7" width="12.2" height="24.65" shape-rendering="crispEdges"/><rect fill="#1e1e1e" x="1256.6" y="806.7" width="12.2" height="24.65" shape-rendering="crispEdges"/><rect fill="#0178d4" x="1268.8" y="806.7" width="36.6" height="24.65" shape-rendering="crispEdges"/><rect fill="#0178d4" x="1305.4" y="806.7" width="122" height="24.65" shape-rendering="crispEdges"/><rect fill="#0178d4" x="1427.4" y="806.7" width="36.6" height="24.65" shape-rendering="crispEdges"/><rect fill="#1e1e1e" x="0" y="831.1" width="12.2" height="24.65" shape-rendering="crispEdges"/><rect fill="#4ebf71" x="12.2" y="831.1" width="475.8" height="24.65" shape-rendering="crispEdges"/><rect fill="#1e1e1e" x="488" y="831.1" width="12.2" height="24.65" shape-rendering="crispEdges"/><rect fill="#1e1e1e" x="500.2" y="831.1" width="12.2" height="24.65" shape-rendering="crispEdges"/><rect fill="#191919" x="512.4" y="831.1" width="12.2" height="24.65" shape-rendering="crispEdges"/><rect fill="#1e1e1e" x="524.6" y="831.1" width="719.8" height="24.65" shape-rendering="crispEdges"/><rect fill="#1e1e1e" x="1244.4" y="831.1" width="12.2" height="24.65" shape-rendering="crispEdges"/><rect fill="#1e1e1e" x="1256.6" y="831.1" width="12.2" height="24.65" shape-rendering="crispEdges"/><rect fill="#0178d4" x="1268.8" y="831.1" width="195.2" height="24.65" shape-rendering="crispEdges"/><rect fill="#242f38" x="0" y="855.5" width="48.8" height="24.65" shape-rendering="crispEdges"/><rect fill="#242f38" x="48.8" y="855.5" width="61" height="24.65" shape-rendering="crispEdges"/><rect fill="#242f38" x="109.8" y="855.5" width="48.8" height="24.65" shape-rendering="crispEdges"/><rect fill="#242f38" x="158.6" y="855.5" width="109.8" height="24.65" shape-rendering="crispEdges"/><rect fill="#242f38" x="268.4" y="855.5" width="48.8" height="24.65" shape-rendering="crispEdges"/><rect fill="#242f38" x="317.2" y="855.5" width="158.6" height="24.65" shape-rendering="crispEdges"/><rect fill="#242f38" x="475.8" y="855.5" width="122" height="24.65" shape-rendering="crispEdges"/><rect fill="#242f38" x="597.8" y="855.5" width="134.2" height="24.65" shape-rendering="crispEdges"/><rect fill="#242f38" x="732" y="855.5" width="122" height="24.65" shape-rendering="crispEdges"/><rect fill="#242f38" x="854" y="855.5" width="122" height="24.65" shape-rendering="crispEdges"/><rect fill="#242f38" x="976" y="855.5" width="48.8" height="24.65" shape-rendering="crispEdges"/><rect fill="#242f38" x="1024.8" y="855.5" width="97.6" height="24.65" shape-rendering="crispEdges"/><rect fill="#242f38" x="1122.4" y="855.5" width="122" height="24.65" shape-rendering="crispEdges"/><rect fill="#242f38" x="1244.4" y="855.5" width="73.2" height="24.65" shape-rendering="crispEdges"/><rect fill="#242f38" x="1317.6" y="855.5" width="12.2" height="24.65" shape-rendering="crispEdges"/><rect fill="#242f38" x="1329.8" y="855.5" width="24.4" height="24.65" shape-rendering="crispEdges"/><rect fill="#242f38" x="1354.2" y="855.5" width="48.8" height="24.65" shape-rendering="crispEdges"/><rect fill="#242f38" x="1403" y="855.5" width="48.8" height="24.65" shape-rendering="crispEdges"/><rect fill="#242f38" x="1451.8" y="855.5" width="12.2" height="24.65" shape-rendering="crispEdges"/>
    <g class="terminal-15223449-matrix">
    <text class="terminal-15223449-r2" x="12.2" y="20" textLength="12.2" clip-path="url(#terminal-15223449-line-0)">⭘</text><text class="terminal-15223449-r2" x="683.2" y="20" textLength="61" clip-path="url(#terminal-15223449-line-0)">Anvil</text><text class="terminal-15223449-r1" x="1464" y="20" textLength="12.2" clip-path="url(#terminal-15223449-line-0)">
</text><text class="terminal-15223449-r3" x="500.2" y="44.4" textLength="12.2" clip-path="url(#terminal-15223449-line-1)">│</text><text class="terminal-15223449-r1" x="1464" y="44.4" textLength="12.2" clip-path="url(#terminal-15223449-line-1)">
</text><text class="terminal-15223449-r5" x="12.2" y="68.8" textLength="97.6" clip-path="url(#terminal-15223449-line-2)">PROJECTS</text><text class="terminal-15223449-r3" x="500.2" y="68.8" textLength="12.2" clip-path="url(#terminal-15223449-line-2)">│</text><text class="terminal-15223449-r1" x="1464" y="68.8" textLength="12.2" clip-path="url(#terminal-15223449-line-2)">
</text><text class="terminal-15223449-r2" x="24.4" y="93.2" textLength="146.4" clip-path="url(#terminal-15223449-line-3)">&#160;&#160;my-website</text><text class="terminal-15223449-r3" x="500.2" y="93.2" textLength="12.2" clip-path="url(#terminal-15223449-line-3)">│</text><text class="terminal-15223449-r1" x="1464" y="93.2" textLength="12.2" clip-path="url(#terminal-15223449-line-3)">
</text><text class="terminal-15223449-r2" x="24.4" y="117.6" textLength="170.8" clip-path="url(#terminal-15223449-line-4)">&#160;&#160;side-project</text><text class="terminal-15223449-r3" x="500.2" y="117.6" textLength="12.2" clip-path="url(#terminal-15223449-line-4)">│</text><text class="terminal-15223449-r1" x="1464" y="117.6" textLength="12.2" clip-path="url(#terminal-15223449-line-4)">
</text><text class="terminal-15223449-r2" x="24.4" y="142" textLength="170.8" clip-path="url(#terminal-15223449-line-5)">&#160;&#160;anvil-itself</text><text class="terminal-15223449-r3" x="500.2" y="142" textLength="12.2" clip-path="url(#terminal-15223449-line-5)">│</text><text class="terminal-15223449-r1" x="1464" y="142" textLength="12.2" clip-path="url(#terminal-15223449-line-5)">
</text><text class="terminal-15223449-r3" x="500.2" y="166.4" textLength="12.2" clip-path="url(#terminal-15223449-line-6)">│</text><text class="terminal-15223449-r1" x="1464" y="166.4" textLength="12.2" clip-path="url(#terminal-15223449-line-6)">
</text><text class="terminal-15223449-r6" x="12.2" y="190.8" textLength="475.8" clip-path="url(#terminal-15223449-line-7)">▔▔▔▔▔▔▔▔▔▔▔▔▔▔▔▔▔▔▔▔▔▔▔▔▔▔▔▔▔▔▔▔▔▔▔▔▔▔▔</text><text class="terminal-15223449-r3" x="500.2" y="190.8" textLength="12.2" clip-path="url(#terminal-15223449-line-7)">│</text><text class="terminal-15223449-r1" x="1464" y="190.8" textLength="12.2" clip-path="url(#terminal-15223449-line-7)">
</text><text class="terminal-15223449-r7" x="146.4" y="215.2" textLength="195.2" clip-path="url(#terminal-15223449-line-8)">&#160;+&#160;Open&#160;project&#160;</text><text class="terminal-15223449-r3" x="500.2" y="215.2" textLength="12.2" clip-path="url(#terminal-15223449-line-8)">│</text><text class="terminal-15223449-r1" x="1464" y="215.2" textLength="12.2" clip-path="url(#terminal-15223449-line-8)">
</text><text class="terminal-15223449-r8" x="12.2" y="239.6" textLength="475.8" clip-path="url(#terminal-15223449-line-9)">▁▁▁▁▁▁▁▁▁▁▁▁▁▁▁▁▁▁▁▁▁▁▁▁▁▁▁▁▁▁▁▁▁▁▁▁▁▁▁</text><text class="terminal-15223449-r3" x="500.2" y="239.6" textLength="12.2" clip-path="url(#terminal-15223449-line-9)">│</text><text class="terminal-15223449-r1" x="1464" y="239.6" textLength="12.2" clip-path="url(#terminal-15223449-line-9)">
</text><text class="terminal-15223449-r3" x="500.2" y="264" textLength="12.2" clip-path="url(#terminal-15223449-line-10)">│</text><text class="terminal-15223449-r1" x="1464" y="264" textLength="12.2" clip-path="url(#terminal-15223449-line-10)">
</text><text class="terminal-15223449-r5" x="12.2" y="288.4" textLength="61" clip-path="url(#terminal-15223449-line-11)">FILES</text><text class="terminal-15223449-r3" x="500.2" y="288.4" textLength="12.2" clip-path="url(#terminal-15223449-line-11)">│</text><text class="terminal-15223449-r1" x="1464" y="288.4" textLength="12.2" clip-path="url(#terminal-15223449-line-11)">
</text><text class="terminal-15223449-r9" x="12.2" y="312.8" textLength="146.4" clip-path="url(#terminal-15223449-line-12)">(no&#160;project)</text><text class="terminal-15223449-r3" x="500.2" y="312.8" textLength="12.2" clip-path="url(#terminal-15223449-line-12)">│</text><text class="terminal-15223449-r1" x="1464" y="312.8" textLength="12.2" clip-path="url(#terminal-15223449-line-12)">
</text><text class="terminal-15223449-r3" x="500.2" y="337.2" textLength="12.2" clip-path="url(#terminal-15223449-line-13)">│</text><text class="terminal-15223449-r1" x="1464" y="337.2" textLength="12.2" clip-path="url(#terminal-15223449-line-13)">
</text><text class="terminal-15223449-r3" x="500.2" y="361.6" textLength="12.2" clip-path="url(#terminal-15223449-line-14)">│</text><text class="terminal-15223449-r1" x="1464" y="361.6" textLength="12.2" clip-path="url(#terminal-15223449-line-14)">
</text><text class="terminal-15223449-r3" x="500.2" y="386" textLength="12.2" clip-path="url(#terminal-15223449-line-15)">│</text><text class="terminal-15223449-r1" x="1464" y="386" textLength="12.2" clip-path="url(#terminal-15223449-line-15)">
</text><text class="terminal-15223449-r3" x="500.2" y="410.4" textLength="12.2" clip-path="url(#terminal-15223449-line-16)">│</text><text class="terminal-15223449-r4" x="622.2" y="410.4" textLength="719.8" clip-path="url(#terminal-15223449-line-16)">Open&#160;a&#160;project&#160;(Ctrl+O)&#160;and&#160;start&#160;a&#160;chat&#160;(Ctrl+N)&#160;to&#160;begin.</text><text class="terminal-15223449-r1" x="1464" y="410.4" textLength="12.2" clip-path="url(#terminal-15223449-line-16)">
</text><text class="terminal-15223449-r3" x="500.2" y="434.8" textLength="12.2" clip-path="url(#terminal-15223449-line-17)">│</text><text class="terminal-15223449-r1" x="1464" y="434.8" textLength="12.2" clip-path="url(#terminal-15223449-line-17)">
</text><text class="terminal-15223449-r3" x="500.2" y="459.2" textLength="12.2" clip-path="url(#terminal-15223449-line-18)">│</text><text class="terminal-15223449-r1" x="1464" y="459.2" textLength="12.2" clip-path="url(#terminal-15223449-line-18)">
</text><text class="terminal-15223449-r3" x="500.2" y="483.6" textLength="12.2" clip-path="url(#terminal-15223449-line-19)">│</text><text class="terminal-15223449-r1" x="1464" y="483.6" textLength="12.2" clip-path="url(#terminal-15223449-line-19)">
</text><text class="terminal-15223449-r3" x="500.2" y="508" textLength="12.2" clip-path="url(#terminal-15223449-line-20)">│</text><text class="terminal-15223449-r1" x="1464" y="508" textLength="12.2" clip-path="url(#terminal-15223449-line-20)">
</text><text class="terminal-15223449-r3" x="500.2" y="532.4" textLength="12.2" clip-path="url(#terminal-15223449-line-21)">│</text><text class="terminal-15223449-r1" x="1464" y="532.4" textLength="12.2" clip-path="url(#terminal-15223449-line-21)">
</text><text class="terminal-15223449-r3" x="500.2" y="556.8" textLength="12.2" clip-path="url(#terminal-15223449-line-22)">│</text><text class="terminal-15223449-r1" x="1464" y="556.8" textLength="12.2" clip-path="url(#terminal-15223449-line-22)">
</text><text class="terminal-15223449-r3" x="500.2" y="581.2" textLength="12.2" clip-path="url(#terminal-15223449-line-23)">│</text><text class="terminal-15223449-r1" x="1464" y="581.2" textLength="12.2" clip-path="url(#terminal-15223449-line-23)">
</text><text class="terminal-15223449-r3" x="500.2" y="605.6" textLength="12.2" clip-path="url(#terminal-15223449-line-24)">│</text><text class="terminal-15223449-r1" x="1464" y="605.6" textLength="12.2" clip-path="url(#terminal-15223449-line-24)">
</text><text class="terminal-15223449-r3" x="500.2" y="630" textLength="12.2" clip-path="url(#terminal-15223449-line-25)">│</text><text class="terminal-15223449-r1" x="1464" y="630" textLength="12.2" clip-path="url(#terminal-15223449-line-25)">
</text><text class="terminal-15223449-r3" x="500.2" y="654.4" textLength="12.2" clip-path="url(#terminal-15223449-line-26)">│</text><text class="terminal-15223449-r1" x="1464" y="654.4" textLength="12.2" clip-path="url(#terminal-15223449-line-26)">
</text><text class="terminal-15223449-r3" x="500.2" y="678.8" textLength="12.2" clip-path="url(#terminal-15223449-line-27)">│</text><text class="terminal-15223449-r1" x="1464" y="678.8" textLength="12.2" clip-path="url(#terminal-15223449-line-27)">
</text><text class="terminal-15223449-r3" x="500.2" y="703.2" textLength="12.2" clip-path="url(#terminal-15223449-line-28)">│</text><text class="terminal-15223449-r1" x="1464" y="703.2" textLength="12.2" clip-path="url(#terminal-15223449-line-28)">
</text><text class="terminal-15223449-r3" x="500.2" y="727.6" textLength="12.2" clip-path="url(#terminal-15223449-line-29)">│</text><text class="terminal-15223449-r1" x="1464" y="727.6" textLength="12.2" clip-path="url(#terminal-15223449-line-29)">
</text><text class="terminal-15223449-r5" x="12.2" y="752" textLength="158.6" clip-path="url(#terminal-15223449-line-30)">CONVERSATIONS</text><text class="terminal-15223449-r3" x="500.2" y="752" textLength="12.2" clip-path="url(#terminal-15223449-line-30)">│</text><text class="terminal-15223449-r1" x="1464" y="752" textLength="12.2" clip-path="url(#terminal-15223449-line-30)">
</text><text class="terminal-15223449-r3" x="500.2" y="776.4" textLength="12.2" clip-path="url(#terminal-15223449-line-31)">│</text><text class="terminal-15223449-r1" x="1464" y="776.4" textLength="12.2" clip-path="url(#terminal-15223449-line-31)">
</text><text class="terminal-15223449-r10" x="12.2" y="800.8" textLength="475.8" clip-path="url(#terminal-15223449-line-32)">▔▔▔▔▔▔▔▔▔▔▔▔▔▔▔▔▔▔▔▔▔▔▔▔▔▔▔▔▔▔▔▔▔▔▔▔▔▔▔</text><text class="terminal-15223449-r3" x="500.2" y="800.8" textLength="12.2" clip-path="url(#terminal-15223449-line-32)">│</text><text class="terminal-15223449-r11" x="512.4" y="800.8" textLength="12.2" clip-path="url(#terminal-15223449-line-32)">▊</text><text class="terminal-15223449-r12" x="524.6" y="800.8" textLength="719.8" clip-path="url(#terminal-15223449-line-32)">▔▔▔▔▔▔▔▔▔▔▔▔▔▔▔▔▔▔▔▔▔▔▔▔▔▔▔▔▔▔▔▔▔▔▔▔▔▔▔▔▔▔▔▔▔▔▔▔▔▔▔▔▔▔▔▔▔▔▔</text><text class="terminal-15223449-r12" x="1244.4" y="800.8" textLength="12.2" clip-path="url(#terminal-15223449-line-32)">▎</text><text class="terminal-15223449-r6" x="1268.8" y="800.8" textLength="195.2" clip-path="url(#terminal-15223449-line-32)">▔▔▔▔▔▔▔▔▔▔▔▔▔▔▔▔</text><text class="terminal-15223449-r1" x="1464" y="800.8" textLength="12.2" clip-path="url(#terminal-15223449-line-32)">
</text><text class="terminal-15223449-r13" x="170.8" y="825.2" textLength="146.4" clip-path="url(#terminal-15223449-line-33)">&#160;+&#160;New&#160;chat&#160;</text><text class="terminal-15223449-r3" x="500.2" y="825.2" textLength="12.2" clip-path="url(#terminal-15223449-line-33)">│</text><text class="terminal-15223449-r11" x="512.4" y="825.2" textLength="12.2" clip-path="url(#terminal-15223449-line-33)">▊</text><text class="terminal-15223449-r14" x="549" y="825.2" textLength="378.2" clip-path="url(#terminal-15223449-line-33)">Type&#160;a&#160;message&#160;and&#160;press&#160;Enter…</text><text class="terminal-15223449-r12" x="1244.4" y="825.2" textLength="12.2" clip-path="url(#terminal-15223449-line-33)">▎</text><text class="terminal-15223449-r7" x="1305.4" y="825.2" textLength="109.8" clip-path="url(#terminal-15223449-line-33)">&#160;📎&#160;Paste&#160;</text><text class="terminal-15223449-r1" x="1464" y="825.2" textLength="12.2" clip-path="url(#terminal-15223449-line-33)">
</text><text class="terminal-15223449-r15" x="12.2" y="849.6" textLength="475.8" clip-path="url(#terminal-15223449-line-34)">▁▁▁▁▁▁▁▁▁▁▁▁▁▁▁▁▁▁▁▁▁▁▁▁▁▁▁▁▁▁▁▁▁▁▁▁▁▁▁</text><text class="terminal-15223449-r3" x="500.2" y="849.6" textLength="12.2" clip-path="url(#terminal-15223449-line-34)">│</text><text class="terminal-15223449-r11" x="512.4" y="849.6" textLength="12.2" clip-path="url(#terminal-15223449-line-34)">▊</text><text class="terminal-15223449-r12" x="524.6" y="849.6" textLength="719.8" clip-path="url(#terminal-15223449-line-34)">▁▁▁▁▁▁▁▁▁▁▁▁▁▁▁▁▁▁▁▁▁▁▁▁▁▁▁▁▁▁▁▁▁▁▁▁▁▁▁▁▁▁▁▁▁▁▁▁▁▁▁▁▁▁▁▁▁▁▁</text><text class="terminal-15223449-r12" x="1244.4" y="849.6" textLength="12.2" clip-path="url(#terminal-15223449-line-34)">▎</text><text class="terminal-15223449-r8" x="1268.8" y="849.6" textLength="195.2" clip-path="url(#terminal-15223449-line-34)">▁▁▁▁▁▁▁▁▁▁▁▁▁▁▁▁</text><text class="terminal-15223449-r1" x="1464" y="849.6" textLength="12.2" clip-path="url(#terminal-15223449-line-34)">
</text><text class="terminal-15223449-r16" x="0" y="874" textLength="48.8" clip-path="url(#terminal-15223449-line-35)">&#160;^q&#160;</text><text class="terminal-15223449-r2" x="48.8" y="874" textLength="61" clip-path="url(#terminal-15223449-line-35)">Quit&#160;</text><text class="terminal-15223449-r16" x="109.8" y="874" textLength="48.8" clip-path="url(#terminal-15223449-line-35)">&#160;^n&#160;</text><text class="terminal-15223449-r2" x="158.6" y="874" textLength="109.8" clip-path="url(#terminal-15223449-line-35)">New&#160;chat&#160;</text><text class="terminal-15223449-r16" x="268.4" y="874" textLength="48.8" clip-path="url(#terminal-15223449-line-35)">&#160;^o&#160;</text><text class="terminal-15223449-r2" x="317.2" y="874" textLength="158.6" clip-path="url(#terminal-15223449-line-35)">Open&#160;project&#160;</text><text class="terminal-15223449-r16" x="475.8" y="874" textLength="122" clip-path="url(#terminal-15223449-line-35)">&#160;shift+^o&#160;</text><text class="terminal-15223449-r2" x="597.8" y="874" textLength="134.2" clip-path="url(#terminal-15223449-line-35)">New&#160;window&#160;</text><text class="terminal-15223449-r16" x="732" y="874" textLength="122" clip-path="url(#terminal-15223449-line-35)">&#160;shift+^w&#160;</text><text class="terminal-15223449-r2" x="854" y="874" textLength="122" clip-path="url(#terminal-15223449-line-35)">Close&#160;tab&#160;</text><text class="terminal-15223449-r16" x="976" y="874" textLength="48.8" clip-path="url(#terminal-15223449-line-35)">&#160;^r&#160;</text><text class="terminal-15223449-r2" x="1024.8" y="874" textLength="97.6" clip-path="url(#terminal-15223449-line-35)">Refresh&#160;</text><text class="terminal-15223449-r16" x="1122.4" y="874" textLength="122" clip-path="url(#terminal-15223449-line-35)">&#160;shift+^i&#160;</text><text class="terminal-15223449-r2" x="1244.4" y="874" textLength="73.2" clip-path="url(#terminal-15223449-line-35)">Attach</text><text class="terminal-15223449-r17" x="1317.6" y="874" textLength="12.2" clip-path="url(#terminal-15223449-line-35)">▏</text><text class="terminal-15223449-r16" x="1329.8" y="874" textLength="24.4" clip-path="url(#terminal-15223449-line-35)">^p</text><text class="terminal-15223449-r2" x="1354.2" y="874" textLength="48.8" clip-path="url(#terminal-15223449-line-35)">&#160;pal</text><text class="terminal-15223449-r2" x="1403" y="874" textLength="48.8" clip-path="url(#terminal-15223449-line-35)">ette</text>
    </g>
    </g>
</svg>
