<svg class="rich-terminal" viewBox="0 0 1482 928.4" xmlns="http://www.w3.org/2000/svg">
    <!-- Generated with Rich https://www.textualize.io -->
    <style>

    @font-face {
        font-family: "Fira Code";
        src: local("FiraCode-Regular"),
                url("https://cdnjs.cloudflare.com/ajax/libs/firacode/6.2.0/woff2/FiraCode-Regular.woff2") format("woff2"),
                url("https://cdnjs.cloudflare.com/ajax/libs/firacode/6.2.0/woff/FiraCode-Regular.woff") format("woff");
        font-style: normal;
        font-weight: 400;
    }
    @font-face {
        font-family: "Fira Code";
        src: local("FiraCode-Bold"),
                url("https://cdnjs.cloudflare.com/ajax/libs/firacode/6.2.0/woff2/FiraCode-Bold.woff2") format("woff2"),
                url("https://cdnjs.cloudflare.com/ajax/libs/firacode/6.2.0/woff/FiraCode-Bold.woff") format("woff");
        font-style: bold;
        font-weight: 700;
    }

    .terminal-2284145326-matrix {
        font-family: Fira Code, monospace;
        font-size: 20px;
        line-height: 24.4px;
        font-variant-east-asian: full-width;
    }

    .terminal-2284145326-title {
        font-size: 18px;
        font-weight: bold;
        font-family: arial;
    }

    .terminal-2284145326-r1 { fill: #c5c8c6 }
.terminal-2284145326-r2 { fill: #0178d4 }
.terminal-2284145326-r3 { fill: #fea62b;font-weight: bold }
.terminal-2284145326-r4 { fill: #a7abaf }
.terminal-2284145326-r5 { fill: #ddedf9;font-weight: bold }
.terminal-2284145326-r6 { fill: #92c5ec;font-weight: bold }
.terminal-2284145326-r7 { fill: #e0e0e0 }
.terminal-2284145326-r8 { fill: #a1a1a1 }
.terminal-2284145326-r9 { fill: #008000 }
.terminal-2284145326-r10 { fill: #242f38 }
.terminal-2284145326-r11 { fill: #191919 }
.terminal-2284145326-r12 { fill: #737373 }
.terminal-2284145326-r13 { fill: #7a8086 }
    </style>

    <defs>
    <clipPath id="terminal-2284145326-clip-terminal">
      <rect x="0" y="0" width="1463.0" height="877.4" />
    </clipPath>
    <clipPath id="terminal-2284145326-line-0">
    <rect x="0" y="1.5" width="1464" height="24.65"/>
            </clipPath>
<clipPath id="terminal-2284145326-line-1">
    <rect x="0" y="25.9" width="1464" height="24.65"/>
            </clipPath>
<clipPath id="terminal-2284145326-line-2">
    <rect x="0" y="50.3" width="1464" height="24.65"/>
            </clipPath>
<clipPath id="terminal-2284145326-line-3">
    <rect x="0" y="74.7" width="1464" height="24.65"/>
            </clipPath>
<clipPath id="terminal-2284145326-line-4">
    <rect x="0" y="99.1" width="1464" height="24.65"/>
            </clipPath>
<clipPath id="terminal-2284145326-line-5">
    <rect x="0" y="123.5" width="1464" height="24.65"/>
            </clipPath>
<clipPath id="terminal-2284145326-line-6">
    <rect x="0" y="147.9" width="1464" height="24.65"/>
            </clipPath>
<clipPath id="terminal-2284145326-line-7">
    <rect x="0" y="172.3" width="1464" height="24.65"/>
            </clipPath>
<clipPath id="terminal-2284145326-line-8">
    <rect x="0" y="196.7" width="1464" height="24.65"/>
            </clipPath>
<clipPath id="terminal-2284145326-line-9">
    <rect x="0" y="221.1" width="1464" height="24.65"/>
            </clipPath>
<clipPath id="terminal-2284145326-line-10">
    <rect x="0" y="245.5" width="1464" height="24.65"/>
            </clipPath>
<clipPath id="terminal-2284145326-line-11">
    <rect x="0" y="269.9" width="1464" height="24.65"/>
            </clipPath>
<clipPath id="terminal-2284145326-line-12">
    <rect x="0" y="294.3" width="1464" height="24.65"/>
            </clipPath>
<clipPath id="terminal-2284145326-line-13">
    <rect x="0" y="318.7" width="1464" height="24.65"/>
            </clipPath>
<clipPath id="terminal-2284145326-line-14">
    <rect x="0" y="343.1" width="1464" height="24.65"/>
            </clipPath>
<clipPath id="terminal-2284145326-line-15">
    <rect x="0" y="367.5" width="1464" height="24.65"/>
            </clipPath>
<clipPath id="terminal-2284145326-line-16">
    <rect x="0" y="391.9" width="1464" height="24.65"/>
            </clipPath>
<clipPath id="terminal-2284145326-line-17">
    <rect x="0" y="416.3" width="1464" height="24.65"/>
            </clipPath>
<clipPath id="terminal-2284145326-line-18">
    <rect x="0" y="440.7" width="1464" height="24.65"/>
            </clipPath>
<clipPath id="terminal-2284145326-line-19">
    <rect x="0" y="465.1" width="1464" height="24.65"/>
            </clipPath>
<clipPath id="terminal-2284145326-line-20">
    <rect x="0" y="489.5" width="1464" height="24.65"/>
            </clipPath>
<clipPath id="terminal-2284145326-line-21">
    <rect x="0" y="513.9" width="1464" height="24.65"/>
            </clipPath>
<clipPath id="terminal-2284145326-line-22">
    <rect x="0" y="538.3" width="1464" height="24.65"/>
            </clipPath>
<clipPath id="terminal-2284145326-line-23">
    <rect x="0" y="562.7" width="1464" height="24.65"/>
            </clipPath>
<clipPath id="terminal-2284145326-line-24">
    <rect x="0" y="587.1" width="1464" height="24.65"/>
            </clipPath>
<clipPath id="terminal-2284145326-line-25">
    <rect x="0" y="611.5" width="1464" height="24.65"/>
            </clipPath>
<clipPath id="terminal-2284145326-line-26">
    <rect x="0" y="635.9" width="1464" height="24.65"/>
            </clipPath>
<clipPath id="terminal-2284145326-line-27">
    <rect x="0" y="660.3" width="1464" height="24.65"/>
            </clipPath>
<clipPath id="terminal-2284145326-line-28">
    <rect x="0" y="684.7" width="1464" height="24.65"/>
            </clipPath>
<clipPath id="terminal-2284145326-line-29">
    <rect x="0" y="709.1" width="1464" height="24.65"/>
            </clipPath>
<clipPath id="terminal-2284145326-line-30">
    <rect x="0" y="733.5" width="1464" height="24.65"/>
            </clipPath>
<clipPath id="terminal-2284145326-line-31">
    <rect x="0" y="757.9" width="1464" height="24.65"/>
            </clipPath>
<clipPath id="terminal-2284145326-line-32">
    <rect x="0" y="782.3" width="1464" height="24.65"/>
            </clipPath>
<clipPath id="terminal-2284145326-line-33">
    <rect x="0" y="806.7" width="1464" height="24.65"/>
            </clipPath>
<clipPath id="terminal-2284145326-line-34">
    <rect x="0" y="831.1" width="1464" height="24.65"/>
            </clipPath>
    </defs>

    <rect fill="#292929" stroke="rgba(255,255,255,0.35)" stroke-width="1" x="1" y="1" width="1480" height="926.4" rx="8"/><text class="terminal-2284145326-title" fill="#c5c8c6" text-anchor="middle" x="740" y="27">Anvil</text>
            <g transform="translate(26,22)">
            <circle cx="0" cy="0" r="7" fill="#ff5f57"/>
            <circle cx="22" cy="0" r="7" fill="#febc2e"/>
            <circle cx="44" cy="0" r="7" fill="#28c840"/>
            </g>
        
    <g transform="translate(9, 41)" clip-path="url(#terminal-2284145326-clip-terminal)">
    <rect fill="#1e1e1e" x="0" y="1.5" width="1464" height="24.65" shape-rendering="crispEdges"/><rect fill="#1e1e1e" x="0" y="25.9" width="1464" height="24.65" shape-rendering="crispEdges"/><rect fill="#1e1e1e" x="0" y="50.3" width="1464" height="24.65" shape-rendering="crispEdges"/><rect fill="#1e1e1e" x="0" y="74.7" width="1464" height="24.65" shape-rendering="crispEdges"/><rect fill="#1e1e1e" x="0" y="99.1" width="219.6" height="24.65" shape-rendering="crispEdges"/><rect fill="#242f38" x="219.6" y="99.1" width="12.2" height="24.65" shape-rendering="crispEdges"/><rect fill="#242f38" x="231.8" y="99.1" width="1000.4" height="24.65" shape-rendering="crispEdges"/><rect fill="#242f38" x="1232.2" y="99.1" width="12.2" height="24.65" shape-rendering="crispEdges"/><rect fill="#1e1e1e" x="1244.4" y="99.1" width="219.6" height="24.65" shape-rendering="crispEdges"/><rect fill="#1e1e1e" x="0" y="123.5" width="219.6" height="24.65" shape-rendering="crispEdges"/><rect fill="#242f38" x="219.6" y="123.5" width="12.2" height="24.65" shape-rendering="crispEdges"/><rect fill="#242f38" x="231.8" y="123.5" width="1000.4" height="24.65" shape-rendering="crispEdges"/><rect fill="#242f38" x="1232.2" y="123.5" width="12.2" height="24.65" shape-rendering="crispEdges"/><rect fill="#1e1e1e" x="1244.4" y="123.5" width="219.6" height="24.65" shape-rendering="crispEdges"/><rect fill="#1e1e1e" x="0" y="147.9" width="219.6" height="24.65" shape-rendering="crispEdges"/><rect fill="#242f38" x="219.6" y="147.9" width="12.2" height="24.65" shape-rendering="crispEdges"/><rect fill="#242f38" x="231.8" y="147.9" width="24.4" height="24.65" shape-rendering="crispEdges"/><rect fill="#242f38" x="256.2" y="147.9" width="951.6" height="24.65" shape-rendering="crispEdges"/><rect fill="#242f38" x="1207.8" y="147.9" width="24.4" height="24.65" shape-rendering="crispEdges"/><rect fill="#242f38" x="1232.2" y="147.9" width="12.2" height="24.65" shape-rendering="crispEdges"/><rect fill="#1e1e1e" x="1244.4" y="147.9" width="219.6" height="24.65" shape-rendering="crispEdges"/><rect fill="#1e1e1e" x="0" y="172.3" width="219.6" height="24.65" shape-rendering="crispEdges"/><rect fill="#242f38" x="219.6" y="172.3" width="12.2" height="24.65" shape-rendering="crispEdges"/><rect fill="#242f38" x="231.8" y="172.3" width="24.4" height="24.65" shape-rendering="crispEdges"/><rect fill="#242f38" x="256.2" y="172.3" width="97.6" height="24.65" shape-rendering="crispEdges"/><rect fill="#242f38" x="353.8" y="172.3" width="854" height="24.65" shape-rendering="crispEdges"/><rect fill="#242f38" x="1207.8" y="172.3" width="24.4" height="24.65" shape-rendering="crispEdges"/><rect fill="#242f38" x="1232.2" y="172.3" width="12.2" height="24.65" shape-rendering="crispEdges"/><rect fill="#1e1e1e" x="1244.4" y="172.3" width="219.6" height="24.65" shape-rendering="crispEdges"/><rect fill="#1e1e1e" x="0" y="196.7" width="219.6" height="24.65" shape-rendering="crispEdges"/><rect fill="#242f38" x="219.6" y="196.7" width="12.2" height="24.65" shape-rendering="crispEdges"/><rect fill="#242f38" x="231.8" y="196.7" width="24.4" height="24.65" shape-rendering="crispEdges"/><rect fill="#242f38" x="256.2" y="196.7" width="951.6" height="24.65" shape-rendering="crispEdges"/><rect fill="#242f38" x="1207.8" y="196.7" width="24.4" height="24.65" shape-rendering="crispEdges"/><rect fill="#242f38" x="1232.2" y="196.7" width="12.2" height="24.65" shape-rendering="crispEdges"/><rect fill="#1e1e1e" x="1244.4" y="196.7" width="219.6" height="24.65" shape-rendering="crispEdges"/><rect fill="#1e1e1e" x="0" y="221.1" width="219.6" height="24.65" shape-rendering="crispEdges"/><rect fill="#242f38" x="219.6" y="221.1" width="12.2" height="24.65" shape-rendering="crispEdges"/><rect fill="#242f38" x="231.8" y="221.1" width="24.4" height="24.65" shape-rendering="crispEdges"/><rect fill="#242f38" x="256.2" y="221.1" width="158.6" height="24.65" shape-rendering="crispEdges"/><rect fill="#242f38" x="414.8" y="221.1" width="793" height="24.65" shape-rendering="crispEdges"/><rect fill="#242f38" x="1207.8" y="221.1" width="24.4" height="24.65" shape-rendering="crispEdges"/><rect fill="#242f38" x="1232.2" y="221.1" width="12.2" height="24.65" shape-rendering="crispEdges"/><rect fill="#1e1e1e" x="1244.4" y="221.1" width="219.6" height="24.65" shape-rendering="crispEdges"/><rect fill="#1e1e1e" x="0" y="245.5" width="219.6" height="24.65" shape-rendering="crispEdges"/><rect fill="#242f38" x="219.6" y="245.5" width="12.2" height="24.65" shape-rendering="crispEdges"/><rect fill="#242f38" x="231.8" y="245.5" width="24.4" height="24.65" shape-rendering="crispEdges"/><rect fill="#242f38" x="256.2" y="245.5" width="951.6" height="24.65" shape-rendering="crispEdges"/><rect fill="#242f38" x="1207.8" y="245.5" width="24.4" height="24.65" shape-rendering="crispEdges"/><rect fill="#242f38" x="1232.2" y="245.5" width="12.2" height="24.65" shape-rendering="crispEdges"/><rect fill="#1e1e1e" x="1244.4" y="245.5" width="219.6" height="24.65" shape-rendering="crispEdges"/><rect fill="#1e1e1e" x="0" y="269.9" width="219.6" height="24.65" shape-rendering="crispEdges"/><rect fill="#242f38" x="219.6" y="269.9" width="12.2" height="24.65" shape-rendering="crispEdges"/><rect fill="#242f38" x="231.8" y="269.9" width="24.4" height="24.65" shape-rendering="crispEdges"/><rect fill="#242f38" x="256.2" y="269.9" width="951.6" height="24.65" shape-rendering="crispEdges"/><rect fill="#242f38" x="1207.8" y="269.9" width="24.4" height="24.65" shape-rendering="crispEdges"/><rect fill="#242f38" x="1232.2" y="269.9" width="12.2" height="24.65" shape-rendering="crispEdges"/><rect fill="#1e1e1e" x="1244.4" y="269.9" width="219.6" height="24.65" shape-rendering="crispEdges"/><rect fill="#1e1e1e" x="0" y="294.3" width="219.6" height="24.65" shape-rendering="crispEdges"/><rect fill="#242f38" x="219.6" y="294.3" width="12.2" height="24.65" shape-rendering="crispEdges"/><rect fill="#242f38" x="231.8" y="294.3" width="24.4" height="24.65" shape-rendering="crispEdges"/><rect fill="#0178d4" x="256.2" y="294.3" width="12.2" height="24.65" shape-rendering="crispEdges"/><rect fill="#0178d4" x="268.4" y="294.3" width="170.8" height="24.65" shape-rendering="crispEdges"/><rect fill="#0178d4" x="439.2" y="294.3" width="170.8" height="24.65" shape-rendering="crispEdges"/><rect fill="#0178d4" x="610" y="294.3" width="585.6" height="24.65" shape-rendering="crispEdges"/><rect fill="#0178d4" x="1195.6" y="294.3" width="12.2" height="24.65" shape-rendering="crispEdges"/><rect fill="#242f38" x="1207.8" y="294.3" width="24.4" height="24.65" shape-rendering="crispEdges"/><rect fill="#242f38" x="1232.2" y="294.3" width="12.2" height="24.65" shape-rendering="crispEdges"/><rect fill="#1e1e1e" x="1244.4" y="294.3" width="219.6" height="24.65" shape-rendering="crispEdges"/><rect fill="#1e1e1e" x="0" y="318.7" width="219.6" height="24.65" shape-rendering="crispEdges"/><rect fill="#242f38" x="219.6" y="318.7" width="12.2" height="24.65" shape-rendering="crispEdges"/><rect fill="#242f38" x="231.8" y="318.7" width="24.4" height="24.65" shape-rendering="crispEdges"/><rect fill="#272727" x="256.2" y="318.7" width="12.2" height="24.65" shape-rendering="crispEdges"/><rect fill="#272727" x="268.4" y="318.7" width="231.8" height="24.65" shape-rendering="crispEdges"/><rect fill="#272727" x="500.2" y="318.7" width="170.8" height="24.65" shape-rendering="crispEdges"/><rect fill="#272727" x="671" y="318.7" width="524.6" height="24.65" shape-rendering="crispEdges"/><rect fill="#272727" x="1195.6" y="318.7" width="12.2" height="24.65" shape-rendering="crispEdges"/><rect fill="#242f38" x="1207.8" y="318.7" width="24.4" height="24.65" shape-rendering="crispEdges"/><rect fill="#242f38" x="1232.2" y="318.7" width="12.2" height="24.65" shape-rendering="crispEdges"/><rect fill="#1e1e1e" x="1244.4" y="318.7" width="219.6" height="24.65" shape-rendering="crispEdges"/><rect fill="#1e1e1e" x="0" y="343.1" width="219.6" height="24.65" shape-rendering="crispEdges"/><rect fill="#242f38" x="219.6" y="343.1" width="12.2" height="24.65" shape-rendering="crispEdges"/><rect fill="#242f38" x="231.8" y="343.1" width="24.4" height="24.65" shape-rendering="crispEdges"/><rect fill="#272727" x="256.2" y="343.1" width="12.2" height="24.65" shape-rendering="crispEdges"/><rect fill="#272727" x="268.4" y="343.1" width="268.4" height="24.65" shape-rendering="crispEdges"/><rect fill="#272727" x="536.8" y="343.1" width="12.2" height="24.65" shape-rendering="crispEdges"/><rect fill="#272727" x="549" y="343.1" width="646.6" height="24.65" shape-rendering="crispEdges"/><rect fill="#272727" x="1195.6" y="343.1" width="12.2" height="24.65" shape-rendering="crispEdges"/><rect fill="#242f38" x="1207.8" y="343.1" width="24.4" height="24.65" shape-rendering="crispEdges"/><rect fill="#242f38" x="1232.2" y="343.1" width="12.2" height="24.65" shape-rendering="crispEdges"/><rect fill="#1e1e1e" x="1244.4" y="343.1" width="219.6" height="24.65" shape-rendering="crispEdges"/><rect fill="#1e1e1e" x="0" y="367.5" width="219.6" height="24.65" shape-rendering="crispEdges"/><rect fill="#242f38" x="219.6" y="367.5" width="12.2" height="24.65" shape-rendering="crispEdges"/><rect fill="#242f38" x="231.8" y="367.5" width="24.4" height="24.65" shape-rendering="crispEdges"/><rect fill="#242f38" x="256.2" y="367.5" width="951.6" height="24.65" shape-rendering="crispEdges"/><rect fill="#242f38" x="1207.8" y="367.5" width="24.4" height="24.65" shape-rendering="crispEdges"/><rect fill="#242f38" x="1232.2" y="367.5" width="12.2" height="24.65" shape-rendering="crispEdges"/><rect fill="#1e1e1e" x="1244.4" y="367.5" width="219.6" height="24.65" shape-rendering="crispEdges"/><rect fill="#1e1e1e" x="0" y="391.9" width="219.6" height="24.65" shape-rendering="crispEdges"/><rect fill="#242f38" x="219.6" y="391.9" width="12.2" height="24.65" shape-rendering="crispEdges"/><rect fill="#242f38" x="231.8" y="391.9" width="24.4" height="24.65" shape-rendering="crispEdges"/><rect fill="#242f38" x="256.2" y="391.9" width="158.6" height="24.65" shape-rendering="crispEdges"/><rect fill="#242f38" x="414.8" y="391.9" width="793" height="24.65" shape-rendering="crispEdges"/><rect fill="#242f38" x="1207.8" y="391.9" width="24.4" height="24.65" shape-rendering="crispEdges"/><rect fill="#242f38" x="1232.2" y="391.9" width="12.2" height="24.65" shape-rendering="crispEdges"/><rect fill="#1e1e1e" x="1244.4" y="391.9" width="219.6" height="24.65" shape-rendering="crispEdges"/><rect fill="#1e1e1e" x="0" y="416.3" width="219.6" height="24.65" shape-rendering="crispEdges"/><rect fill="#242f38" x="219.6" y="416.3" width="12.2" height="24.65" shape-rendering="crispEdges"/><rect fill="#242f38" x="231.8" y="416.3" width="24.4" height="24.65" shape-rendering="crispEdges"/><rect fill="#242f38" x="256.2" y="416.3" width="951.6" height="24.65" shape-rendering="crispEdges"/><rect fill="#242f38" x="1207.8" y="416.3" width="24.4" height="24.65" shape-rendering="crispEdges"/><rect fill="#242f38" x="1232.2" y="416.3" width="12.2" height="24.65" shape-rendering="crispEdges"/><rect fill="#1e1e1e" x="1244.4" y="416.3" width="219.6" height="24.65" shape-rendering="crispEdges"/><rect fill="#1e1e1e" x="0" y="440.7" width="219.6" height="24.65" shape-rendering="crispEdges"/><rect fill="#242f38" x="219.6" y="440.7" width="12.2" height="24.65" shape-rendering="crispEdges"/><rect fill="#242f38" x="231.8" y="440.7" width="24.4" height="24.65" shape-rendering="crispEdges"/><rect fill="#242f38" x="256.2" y="440.7" width="951.6" height="24.65" shape-rendering="crispEdges"/><rect fill="#242f38" x="1207.8" y="440.7" width="24.4" height="24.65" shape-rendering="crispEdges"/><rect fill="#242f38" x="1232.2" y="440.7" width="12.2" height="24.65" shape-rendering="crispEdges"/><rect fill="#1e1e1e" x="1244.4" y="440.7" width="219.6" height="24.65" shape-rendering="crispEdges"/><rect fill="#1e1e1e" x="0" y="465.1" width="219.6" height="24.65" shape-rendering="crispEdges"/><rect fill="#242f38" x="219.6" y="465.1" width="12.2" height="24.65" shape-rendering="crispEdges"/><rect fill="#242f38" x="231.8" y="465.1" width="24.4" height="24.65" shape-rendering="crispEdges"/><rect fill="#191919" x="256.2" y="465.1" width="12.2" height="24.65" shape-rendering="crispEdges"/><rect fill="#1e1e1e" x="268.4" y="465.1" width="927.2" height="24.65" shape-rendering="crispEdges"/><rect fill="#242f38" x="1195.6" y="465.1" width="12.2" height="24.65" shape-rendering="crispEdges"/><rect fill="#242f38" x="1207.8" y="465.1" width="24.4" height="24.65" shape-rendering="crispEdges"/><rect fill="#242f38" x="1232.2" y="465.1" width="12.2" height="24.65" shape-rendering="crispEdges"/><rect fill="#1e1e1e" x="1244.4" y="465.1" width="219.6" height="24.65" shape-rendering="crispEdges"/><rect fill="#1e1e1e" x="0" y="489.5" width="219.6" height="24.65" shape-rendering="crispEdges"/><rect fill="#242f38" x="219.6" y="489.5" width="12.2" height="24.65" shape-rendering="crispEdges"/><rect fill="#242f38" x="231.8" y="489.5" width="24.4" height="24.65" shape-rendering="crispEdges"/><rect fill="#191919" x="256.2" y="489.5" width="12.2" height="24.65" shape-rendering="crispEdges"/><rect fill="#1e1e1e" x="268.4" y="489.5" width="24.4" height="24.65" shape-rendering="crispEdges"/><rect fill="#1e1e1e" x="292.8" y="489.5" width="195.2" height="24.65" shape-rendering="crispEdges"/><rect fill="#1e1e1e" x="488" y="489.5" width="683.2" height="24.65" shape-rendering="crispEdges"/><rect fill="#1e1e1e" x="1171.2" y="489.5" width="24.4" height="24.65" shape-rendering="crispEdges"/><rect fill="#242f38" x="1195.6" y="489.5" width="12.2" height="24.65" shape-rendering="crispEdges"/><rect fill="#242f38" x="1207.8" y="489.5" width="24.4" height="24.65" shape-rendering="crispEdges"/><rect fill="#242f38" x="1232.2" y="489.5" width="12.2" height="24.65" shape-rendering="crispEdges"/><rect fill="#1e1e1e" x="1244.4" y="489.5" width="219.6" height="24.65" shape-rendering="crispEdges"/><rect fill="#1e1e1e" x="0" y="513.9" width="219.6" height="24.65" shape-rendering="crispEdges"/><rect fill="#242f38" x="219.6" y="513.9" width="12.2" height="24.65" shape-rendering="crispEdges"/><rect fill="#242f38" x="231.8" y="513.9" width="24.4" height="24.65" shape-rendering="crispEdges"/><rect fill="#191919" x="256.2" y="513.9" width="12.2" height="24.65" shape-rendering="crispEdges"/><rect fill="#1e1e1e" x="268.4" y="513.9" width="927.2" height="24.65" shape-rendering="crispEdges"/><rect fill="#242f38" x="1195.6" y="513.9" width="12.2" height="24.65" shape-rendering="crispEdges"/><rect fill="#242f38" x="1207.8" y="513.9" width="24.4" height="24.65" shape-rendering="crispEdges"/><rect fill="#242f38" x="1232.2" y="513.9" width="12.2" height="24.65" shape-rendering="crispEdges"/><rect fill="#1e1e1e" x="1244.4" y="513.9" width="219.6" height="24.65" shape-rendering="crispEdges"/><rect fill="#1e1e1e" x="0" y="538.3" width="219.6" height="24.65" shape-rendering="crispEdges"/><rect fill="#242f38" x="219.6" y="538.3" width="12.2" height="24.65" shape-rendering="crispEdges"/><rect fill="#242f38" x="231.8" y="538.3" width="24.4" height="24.65" shape-rendering="crispEdges"/><rect fill="#242f38" x="256.2" y="538.3" width="951.6" height="24.65" shape-rendering="crispEdges"/><rect fill="#242f38" x="1207.8" y="538.3" width="24.4" height="24.65" shape-rendering="crispEdges"/><rect fill="#242f38" x="1232.2" y="538.3" width="12.2" height="24.65" shape-rendering="crispEdges"/><rect fill="#1e1e1e" x="1244.4" y="538.3" width="219.6" height="24.65" shape-rendering="crispEdges"/><rect fill="#1e1e1e" x="0" y="562.7" width="219.6" height="24.65" shape-rendering="crispEdges"/><rect fill="#242f38" x="219.6" y="562.7" width="12.2" height="24.65" shape-rendering="crispEdges"/><rect fill="#242f38" x="231.8" y="562.7" width="24.4" height="24.65" shape-rendering="crispEdges"/><rect fill="#242f38" x="256.2" y="562.7" width="61" height="24.65" shape-rendering="crispEdges"/><rect fill="#242f38" x="317.2" y="562.7" width="890.6" height="24.65" shape-rendering="crispEdges"/><rect fill="#242f38" x="1207.8" y="562.7" width="24.4" height="24.65" shape-rendering="crispEdges"/><rect fill="#242f38" x="1232.2" y="562.7" width="12.2" height="24.65" shape-rendering="crispEdges"/><rect fill="#1e1e1e" x="1244.4" y="562.7" width="219.6" height="24.65" shape-rendering="crispEdges"/><rect fill="#1e1e1e" x="0" y="587.1" width="219.6" height="24.65" shape-rendering="crispEdges"/><rect fill="#242f38" x="219.6" y="587.1" width="12.2" height="24.65" shape-rendering="crispEdges"/><rect fill="#242f38" x="231.8" y="587.1" width="24.4" height="24.65" shape-rendering="crispEdges"/><rect fill="#242f38" x="256.2" y="587.1" width="134.2" height="24.65" shape-rendering="crispEdges"/><rect fill="#242f38" x="390.4" y="587.1" width="817.4" height="24.65" shape-rendering="crispEdges"/><rect fill="#242f38" x="1207.8" y="587.1" width="24.4" height="24.65" shape-rendering="crispEdges"/><rect fill="#242f38" x="1232.2" y="587.1" width="12.2" height="24.65" shape-rendering="crispEdges"/><rect fill="#1e1e1e" x="1244.4" y="587.1" width="219.6" height="24.65" shape-rendering="crispEdges"/><rect fill="#1e1e1e" x="0" y="611.5" width="219.6" height="24.65" shape-rendering="crispEdges"/><rect fill="#242f38" x="219.6" y="611.5" width="12.2" height="24.65" shape-rendering="crispEdges"/><rect fill="#242f38" x="231.8" y="611.5" width="24.4" height="24.65" shape-rendering="crispEdges"/><rect fill="#242f38" x="256.2" y="611.5" width="951.6" height="24.65" shape-rendering="crispEdges"/><rect fill="#242f38" x="1207.8" y="611.5" width="24.4" height="24.65" shape-rendering="crispEdges"/><rect fill="#242f38" x="1232.2" y="611.5" width="12.2" height="24.65" shape-rendering="crispEdges"/><rect fill="#1e1e1e" x="1244.4" y="611.5" width="219.6" height="24.65" shape-rendering="crispEdges"/><rect fill="#1e1e1e" x="0" y="635.9" width="219.6" height="24.65" shape-rendering="crispEdges"/><rect fill="#242f38" x="219.6" y="635.9" width="12.2" height="24.65" shape-rendering="crispEdges"/><rect fill="#242f38" x="231.8" y="635.9" width="24.4" height="24.65" shape-rendering="crispEdges"/><rect fill="#242f38" x="256.2" y="635.9" width="951.6" height="24.65" shape-rendering="crispEdges"/><rect fill="#242f38" x="1207.8" y="635.9" width="24.4" height="24.65" shape-rendering="crispEdges"/><rect fill="#242f38" x="1232.2" y="635.9" width="12.2" height="24.65" shape-rendering="crispEdges"/><rect fill="#1e1e1e" x="1244.4" y="635.9" width="219.6" height="24.65" shape-rendering="crispEdges"/><rect fill="#1e1e1e" x="0" y="660.3" width="219.6" height="24.65" shape-rendering="crispEdges"/><rect fill="#242f38" x="219.6" y="660.3" width="12.2" height="24.65" shape-rendering="crispEdges"/><rect fill="#242f38" x="231.8" y="660.3" width="24.4" height="24.65" shape-rendering="crispEdges"/><rect fill="#242f38" x="256.2" y="660.3" width="951.6" height="24.65" shape-rendering="crispEdges"/><rect fill="#242f38" x="1207.8" y="660.3" width="24.4" height="24.65" shape-rendering="crispEdges"/><rect fill="#242f38" x="1232.2" y="660.3" width="12.2" height="24.65" shape-rendering="crispEdges"/><rect fill="#1e1e1e" x="1244.4" y="660.3" width="219.6" height="24.65" shape-rendering="crispEdges"/><rect fill="#1e1e1e" x="0" y="684.7" width="219.6" height="24.65" shape-rendering="crispEdges"/><rect fill="#242f38" x="219.6" y="684.7" width="12.2" height="24.65" shape-rendering="crispEdges"/><rect fill="#242f38" x="231.8" y="684.7" width="24.4" height="24.65" shape-rendering="crispEdges"/><rect fill="#242f38" x="256.2" y="684.7" width="500.2" height="24.65" shape-rendering="crispEdges"/><rect fill="#242f38" x="756.4" y="684.7" width="451.4" height="24.65" shape-rendering="crispEdges"/><rect fill="#242f38" x="1207.8" y="684.7" width="24.4" height="24.65" shape-rendering="crispEdges"/><rect fill="#242f38" x="1232.2" y="684.7" width="12.2" height="24.65" shape-rendering="crispEdges"/><rect fill="#1e1e1e" x="1244.4" y="684.7" width="219.6" height="24.65" shape-rendering="crispEdges"/><rect fill="#1e1e1e" x="0" y="709.1" width="219.6" height="24.65" shape-rendering="crispEdges"/><rect fill="#242f38" x="219.6" y="709.1" width="12.2" height="24.65" shape-rendering="crispEdges"/><rect fill="#242f38" x="231.8" y="709.1" width="1000.4" height="24.65" shape-rendering="crispEdges"/><rect fill="#242f38" x="1232.2" y="709.1" width="12.2" height="24.65" shape-rendering="crispEdges"/><rect fill="#1e1e1e" x="1244.4" y="709.1" width="219.6" height="24.65" shape-rendering="crispEdges"/><rect fill="#1e1e1e" x="0" y="733.5" width="219.6" height="24.65" shape-rendering="crispEdges"/><rect fill="#242f38" x="219.6" y="733.5" width="12.2" height="24.65" shape-rendering="crispEdges"/><rect fill="#242f38" x="231.8" y="733.5" width="1000.4" height="24.65" shape-rendering="crispEdges"/><rect fill="#242f38" x="1232.2" y="733.5" width="12.2" height="24.65" shape-rendering="crispEdges"/><rect fill="#1e1e1e" x="1244.4" y="733.5" width="219.6" height="24.65" shape-rendering="crispEdges"/><rect fill="#1e1e1e" x="0" y="757.9" width="1464" height="24.65" shape-rendering="crispEdges"/><rect fill="#1e1e1e" x="0" y="782.3" width="1464" height="24.65" shape-rendering="crispEdges"/><rect fill="#1e1e1e" x="0" y="806.7" width="1464" height="24.65" shape-rendering="crispEdges"/><rect fill="#1e1e1e" x="0" y="831.1" width="1464" height="24.65" shape-rendering="crispEdges"/><rect fill="#1e1e1e" x="0" y="855.5" width="1464" height="24.65" shape-rendering="crispEdges"/>
    <g class="terminal-2284145326-matrix">
    <text class="terminal-2284145326-r1" x="1464" y="20" textLength="12.2" clip-path="url(#terminal-2284145326-line-0)">
</text><text class="terminal-2284145326-r1" x="1464" y="44.4" textLength="12.2" clip-path="url(#terminal-2284145326-line-1)">
</text><text class="terminal-2284145326-r1" x="1464" y="68.8" textLength="12.2" clip-path="url(#terminal-2284145326-line-2)">
</text><text class="terminal-2284145326-r1" x="1464" y="93.2" textLength="12.2" clip-path="url(#terminal-2284145326-line-3)">
</text><text class="terminal-2284145326-r2" x="219.6" y="117.6" textLength="12.2" clip-path="url(#terminal-2284145326-line-4)">█</text><text class="terminal-2284145326-r2" x="231.8" y="117.6" textLength="1000.4" clip-path="url(#terminal-2284145326-line-4)">▀▀▀▀▀▀▀▀▀▀▀▀▀▀▀▀▀▀▀▀▀▀▀▀▀▀▀▀▀▀▀▀▀▀▀▀▀▀▀▀▀▀▀▀▀▀▀▀▀▀▀▀▀▀▀▀▀▀▀▀▀▀▀▀▀▀▀▀▀▀▀▀▀▀▀▀▀▀▀▀▀▀</text><text class="terminal-2284145326-r2" x="1232.2" y="117.6" textLength="12.2" clip-path="url(#terminal-2284145326-line-4)">█</text><text class="terminal-2284145326-r1" x="1464" y="117.6" textLength="12.2" clip-path="url(#terminal-2284145326-line-4)">
</text><text class="terminal-2284145326-r2" x="219.6" y="142" textLength="12.2" clip-path="url(#terminal-2284145326-line-5)">█</text><text class="terminal-2284145326-r2" x="1232.2" y="142" textLength="12.2" clip-path="url(#terminal-2284145326-line-5)">█</text><text class="terminal-2284145326-r1" x="1464" y="142" textLength="12.2" clip-path="url(#terminal-2284145326-line-5)">
</text><text class="terminal-2284145326-r2" x="219.6" y="166.4" textLength="12.2" clip-path="url(#terminal-2284145326-line-6)">█</text><text class="terminal-2284145326-r2" x="1232.2" y="166.4" textLength="12.2" clip-path="url(#terminal-2284145326-line-6)">█</text><text class="terminal-2284145326-r1" x="1464" y="166.4" textLength="12.2" clip-path="url(#terminal-2284145326-line-6)">
</text><text class="terminal-2284145326-r2" x="219.6" y="190.8" textLength="12.2" clip-path="url(#terminal-2284145326-line-7)">█</text><text class="terminal-2284145326-r3" x="256.2" y="190.8" textLength="97.6" clip-path="url(#terminal-2284145326-line-7)">Settings</text><text class="terminal-2284145326-r2" x="1232.2" y="190.8" textLength="12.2" clip-path="url(#terminal-2284145326-line-7)">█</text><text class="terminal-2284145326-r1" x="1464" y="190.8" textLength="12.2" clip-path="url(#terminal-2284145326-line-7)">
</text><text class="terminal-2284145326-r2" x="219.6" y="215.2" textLength="12.2" clip-path="url(#terminal-2284145326-line-8)">█</text><text class="terminal-2284145326-r2" x="1232.2" y="215.2" textLength="12.2" clip-path="url(#terminal-2284145326-line-8)">█</text><text class="terminal-2284145326-r1" x="1464" y="215.2" textLength="12.2" clip-path="url(#terminal-2284145326-line-8)">
</text><text class="terminal-2284145326-r2" x="219.6" y="239.6" textLength="12.2" clip-path="url(#terminal-2284145326-line-9)">█</text><text class="terminal-2284145326-r3" x="256.2" y="239.6" textLength="158.6" clip-path="url(#terminal-2284145326-line-9)">Default&#160;agent</text><text class="terminal-2284145326-r2" x="1232.2" y="239.6" textLength="12.2" clip-path="url(#terminal-2284145326-line-9)">█</text><text class="terminal-2284145326-r1" x="1464" y="239.6" textLength="12.2" clip-path="url(#terminal-2284145326-line-9)">
</text><text class="terminal-2284145326-r2" x="219.6" y="264" textLength="12.2" clip-path="url(#terminal-2284145326-line-10)">█</text><text class="terminal-2284145326-r4" x="256.2" y="264" textLength="951.6" clip-path="url(#terminal-2284145326-line-10)">New&#160;conversations&#160;in&#160;new&#160;projects&#160;use&#160;this&#160;agent.&#160;Existing&#160;conversations&#160;are&#160;u</text><text class="terminal-2284145326-r2" x="1232.2" y="264" textLength="12.2" clip-path="url(#terminal-2284145326-line-10)">█</text><text class="terminal-2284145326-r1" x="1464" y="264" textLength="12.2" clip-path="url(#terminal-2284145326-line-10)">
</text><text class="terminal-2284145326-r2" x="219.6" y="288.4" textLength="12.2" clip-path="url(#terminal-2284145326-line-11)">█</text><text class="terminal-2284145326-r2" x="1232.2" y="288.4" textLength="12.2" clip-path="url(#terminal-2284145326-line-11)">█</text><text class="terminal-2284145326-r1" x="1464" y="288.4" textLength="12.2" clip-path="url(#terminal-2284145326-line-11)">
</text><text class="terminal-2284145326-r2" x="219.6" y="312.8" textLength="12.2" clip-path="url(#terminal-2284145326-line-12)">█</text><text class="terminal-2284145326-r5" x="268.4" y="312.8" textLength="170.8" clip-path="url(#terminal-2284145326-line-12)">●&#160;Claude&#160;Code&#160;</text><text class="terminal-2284145326-r6" x="439.2" y="312.8" textLength="170.8" clip-path="url(#terminal-2284145326-line-12)">(auth&#160;unknown)</text><text class="terminal-2284145326-r2" x="1232.2" y="312.8" textLength="12.2" clip-path="url(#terminal-2284145326-line-12)">█</text><text class="terminal-2284145326-r1" x="1464" y="312.8" textLength="12.2" clip-path="url(#terminal-2284145326-line-12)">
</text><text class="terminal-2284145326-r2" x="219.6" y="337.2" textLength="12.2" clip-path="url(#terminal-2284145326-line-13)">█</text><text class="terminal-2284145326-r7" x="268.4" y="337.2" textLength="231.8" clip-path="url(#terminal-2284145326-line-13)">○&#160;OpenAI&#160;Codex&#160;CLI&#160;</text><text class="terminal-2284145326-r8" x="500.2" y="337.2" textLength="170.8" clip-path="url(#terminal-2284145326-line-13)">(auth&#160;unknown)</text><text class="terminal-2284145326-r2" x="1232.2" y="337.2" textLength="12.2" clip-path="url(#terminal-2284145326-line-13)">█</text><text class="terminal-2284145326-r1" x="1464" y="337.2" textLength="12.2" clip-path="url(#terminal-2284145326-line-13)">
</text><text class="terminal-2284145326-r2" x="219.6" y="361.6" textLength="12.2" clip-path="url(#terminal-2284145326-line-14)">█</text><text class="terminal-2284145326-r7" x="268.4" y="361.6" textLength="268.4" clip-path="url(#terminal-2284145326-line-14)">○&#160;Mock&#160;(offline&#160;echo)&#160;</text><text class="terminal-2284145326-r9" x="536.8" y="361.6" textLength="12.2" clip-path="url(#terminal-2284145326-line-14)">✓</text><text class="terminal-2284145326-r2" x="1232.2" y="361.6" textLength="12.2" clip-path="url(#terminal-2284145326-line-14)">█</text><text class="terminal-2284145326-r1" x="1464" y="361.6" textLength="12.2" clip-path="url(#terminal-2284145326-line-14)">
</text><text class="terminal-2284145326-r2" x="219.6" y="386" textLength="12.2" clip-path="url(#terminal-2284145326-line-15)">█</text><text class="terminal-2284145326-r2" x="1232.2" y="386" textLength="12.2" clip-path="url(#terminal-2284145326-line-15)">█</text><text class="terminal-2284145326-r1" x="1464" y="386" textLength="12.2" clip-path="url(#terminal-2284145326-line-15)">
</text><text class="terminal-2284145326-r2" x="219.6" y="410.4" textLength="12.2" clip-path="url(#terminal-2284145326-line-16)">█</text><text class="terminal-2284145326-r3" x="256.2" y="410.4" textLength="158.6" clip-path="url(#terminal-2284145326-line-16)">Default&#160;model</text><text class="terminal-2284145326-r2" x="1232.2" y="410.4" textLength="12.2" clip-path="url(#terminal-2284145326-line-16)">█</text><text class="terminal-2284145326-r1" x="1464" y="410.4" textLength="12.2" clip-path="url(#terminal-2284145326-line-16)">
</text><text class="terminal-2284145326-r2" x="219.6" y="434.8" textLength="12.2" clip-path="url(#terminal-2284145326-line-17)">█</text><text class="terminal-2284145326-r4" x="256.2" y="434.8" textLength="951.6" clip-path="url(#terminal-2284145326-line-17)">Passed&#160;to&#160;Claude&#160;Code&#160;(ignored&#160;by&#160;Codex).&#160;Leave&#160;blank&#160;to&#160;use&#160;the&#160;engine&#x27;s&#160;defa</text><text class="terminal-2284145326-r2" x="1232.2" y="434.8" textLength="12.2" clip-path="url(#terminal-2284145326-line-17)">█</text><text class="terminal-2284145326-r1" x="1464" y="434.8" textLength="12.2" clip-path="url(#terminal-2284145326-line-17)">
</text><text class="terminal-2284145326-r2" x="219.6" y="459.2" textLength="12.2" clip-path="url(#terminal-2284145326-line-18)">█</text><text class="terminal-2284145326-r2" x="1232.2" y="459.2" textLength="12.2" clip-path="url(#terminal-2284145326-line-18)">█</text><text class="terminal-2284145326-r1" x="1464" y="459.2" textLength="12.2" clip-path="url(#terminal-2284145326-line-18)">
</text><text class="terminal-2284145326-r2" x="219.6" y="483.6" textLength="12.2" clip-path="url(#terminal-2284145326-line-19)">█</text><text class="terminal-2284145326-r10" x="256.2" y="483.6" textLength="12.2" clip-path="url(#terminal-2284145326-line-19)">▊</text><text class="terminal-2284145326-r11" x="268.4" y="483.6" textLength="927.2" clip-path="url(#terminal-2284145326-line-19)">▔▔▔▔▔▔▔▔▔▔▔▔▔▔▔▔▔▔▔▔▔▔▔▔▔▔▔▔▔▔▔▔▔▔▔▔▔▔▔▔▔▔▔▔▔▔▔▔▔▔▔▔▔▔▔▔▔▔▔▔▔▔▔▔▔▔▔▔▔▔▔▔▔▔▔▔</text><text class="terminal-2284145326-r11" x="1195.6" y="483.6" textLength="12.2" clip-path="url(#terminal-2284145326-line-19)">▎</text><text class="terminal-2284145326-r2" x="1232.2" y="483.6" textLength="12.2" clip-path="url(#terminal-2284145326-line-19)">█</text><text class="terminal-2284145326-r1" x="1464" y="483.6" textLength="12.2" clip-path="url(#terminal-2284145326-line-19)">
</text><text class="terminal-2284145326-r2" x="219.6" y="508" textLength="12.2" clip-path="url(#terminal-2284145326-line-20)">█</text><text class="terminal-2284145326-r10" x="256.2" y="508" textLength="12.2" clip-path="url(#terminal-2284145326-line-20)">▊</text><text class="terminal-2284145326-r12" x="292.8" y="508" textLength="195.2" clip-path="url(#terminal-2284145326-line-20)">(engine&#160;default)</text><text class="terminal-2284145326-r11" x="1195.6" y="508" textLength="12.2" clip-path="url(#terminal-2284145326-line-20)">▎</text><text class="terminal-2284145326-r2" x="1232.2" y="508" textLength="12.2" clip-path="url(#terminal-2284145326-line-20)">█</text><text class="terminal-2284145326-r1" x="1464" y="508" textLength="12.2" clip-path="url(#terminal-2284145326-line-20)">
</text><text class="terminal-2284145326-r2" x="219.6" y="532.4" textLength="12.2" clip-path="url(#terminal-2284145326-line-21)">█</text><text class="terminal-2284145326-r10" x="256.2" y="532.4" textLength="12.2" clip-path="url(#terminal-2284145326-line-21)">▊</text><text class="terminal-2284145326-r11" x="268.4" y="532.4" textLength="927.2" clip-path="url(#terminal-2284145326-line-21)">▁▁▁▁▁▁▁▁▁▁▁▁▁▁▁▁▁▁▁▁▁▁▁▁▁▁▁▁▁▁▁▁▁▁▁▁▁▁▁▁▁▁▁▁▁▁▁▁▁▁▁▁▁▁▁▁▁▁▁▁▁▁▁▁▁▁▁▁▁▁▁▁▁▁▁▁</text><text class="terminal-2284145326-r11" x="1195.6" y="532.4" textLength="12.2" clip-path="url(#terminal-2284145326-line-21)">▎</text><text class="terminal-2284145326-r2" x="1232.2" y="532.4" textLength="12.2" clip-path="url(#terminal-2284145326-line-21)">█</text><text class="terminal-2284145326-r1" x="1464" y="532.4" textLength="12.2" clip-path="url(#terminal-2284145326-line-21)">
</text><text class="terminal-2284145326-r2" x="219.6" y="556.8" textLength="12.2" clip-path="url(#terminal-2284145326-line-22)">█</text><text class="terminal-2284145326-r2" x="1232.2" y="556.8" textLength="12.2" clip-path="url(#terminal-2284145326-line-22)">█</text><text class="terminal-2284145326-r1" x="1464" y="556.8" textLength="12.2" clip-path="url(#terminal-2284145326-line-22)">
</text><text class="terminal-2284145326-r2" x="219.6" y="581.2" textLength="12.2" clip-path="url(#terminal-2284145326-line-23)">█</text><text class="terminal-2284145326-r3" x="256.2" y="581.2" textLength="61" clip-path="url(#terminal-2284145326-line-23)">About</text><text class="terminal-2284145326-r2" x="1232.2" y="581.2" textLength="12.2" clip-path="url(#terminal-2284145326-line-23)">█</text><text class="terminal-2284145326-r1" x="1464" y="581.2" textLength="12.2" clip-path="url(#terminal-2284145326-line-23)">
</text><text class="terminal-2284145326-r2" x="219.6" y="605.6" textLength="12.2" clip-path="url(#terminal-2284145326-line-24)">█</text><text class="terminal-2284145326-r4" x="256.2" y="605.6" textLength="134.2" clip-path="url(#terminal-2284145326-line-24)">Anvil&#160;0.1.1</text><text class="terminal-2284145326-r2" x="1232.2" y="605.6" textLength="12.2" clip-path="url(#terminal-2284145326-line-24)">█</text><text class="terminal-2284145326-r1" x="1464" y="605.6" textLength="12.2" clip-path="url(#terminal-2284145326-line-24)">
</text><text class="terminal-2284145326-r2" x="219.6" y="630" textLength="12.2" clip-path="url(#terminal-2284145326-line-25)">█</text><text class="terminal-2284145326-r4" x="256.2" y="630" textLength="951.6" clip-path="url(#terminal-2284145326-line-25)">Config:&#160;/var/folders/79/chnxv4sx4nvc0dmgh82vg4c80000gp/T/anvil-shots-eo81rhte/</text><text class="terminal-2284145326-r2" x="1232.2" y="630" textLength="12.2" clip-path="url(#terminal-2284145326-line-25)">█</text><text class="terminal-2284145326-r1" x="1464" y="630" textLength="12.2" clip-path="url(#terminal-2284145326-line-25)">
</text><text class="terminal-2284145326-r2" x="219.6" y="654.4" textLength="12.2" clip-path="url(#terminal-2284145326-line-26)">█</text><text class="terminal-2284145326-r4" x="256.2" y="654.4" textLength="951.6" clip-path="url(#terminal-2284145326-line-26)">Data:&#160;&#160;&#160;/var/folders/79/chnxv4sx4nvc0dmgh82vg4c80000gp/T/anvil-shots-eo81rhte/</text><text class="terminal-2284145326-r2" x="1232.2" y="654.4" textLength="12.2" clip-path="url(#terminal-2284145326-line-26)">█</text><text class="terminal-2284145326-r1" x="1464" y="654.4" textLength="12.2" clip-path="url(#terminal-2284145326-line-26)">
</text><text class="terminal-2284145326-r2" x="219.6" y="678.8" textLength="12.2" clip-path="url(#terminal-2284145326-line-27)">█</text><text class="terminal-2284145326-r2" x="1232.2" y="678.8" textLength="12.2" clip-path="url(#terminal-2284145326-line-27)">█</text><text class="terminal-2284145326-r1" x="1464" y="678.8" textLength="12.2" clip-path="url(#terminal-2284145326-line-27)">
</text><text class="terminal-2284145326-r2" x="219.6" y="703.2" textLength="12.2" clip-path="url(#terminal-2284145326-line-28)">█</text><text class="terminal-2284145326-r13" x="256.2" y="703.2" textLength="500.2" clip-path="url(#terminal-2284145326-line-28)">Changes&#160;save&#160;automatically&#160;·&#160;Esc&#160;to&#160;close</text><text class="terminal-2284145326-r2" x="1232.2" y="703.2" textLength="12.2" clip-path="url(#terminal-2284145326-line-28)">█</text><text class="terminal-2284145326-r1" x="1464" y="703.2" textLength="12.2" clip-path="url(#terminal-2284145326-line-28)">
</text><text class="terminal-2284145326-r2" x="219.6" y="727.6" textLength="12.2" clip-path="url(#terminal-2284145326-line-29)">█</text><text class="terminal-2284145326-r2" x="1232.2" y="727.6" textLength="12.2" clip-path="url(#terminal-2284145326-line-29)">█</text><text class="terminal-2284145326-r1" x="1464" y="727.6" textLength="12.2" clip-path="url(#terminal-2284145326-line-29)">
</text><text class="terminal-2284145326-r2" x="219.6" y="752" textLength="12.2" clip-path="url(#terminal-2284145326-line-30)">█</text><text class="terminal-2284145326-r2" x="231.8" y="752" textLength="1000.4" clip-path="url(#terminal-2284145326-line-30)">▄▄▄▄▄▄▄▄▄▄▄▄▄▄▄▄▄▄▄▄▄▄▄▄▄▄▄▄▄▄▄▄▄▄▄▄▄▄▄▄▄▄▄▄▄▄▄▄▄▄▄▄▄▄▄▄▄▄▄▄▄▄▄▄▄▄▄▄▄▄▄▄▄▄▄▄▄▄▄▄▄▄</text><text class="terminal-2284145326-r2" x="1232.2" y="752" textLength="12.2" clip-path="url(#terminal-2284145326-line-30)">█</text><text class="terminal-2284145326-r1" x="1464" y="752" textLength="12.2" clip-path="url(#terminal-2284145326-line-30)">
</text><text class="terminal-2284145326-r1" x="1464" y="776.4" textLength="12.2" clip-path="url(#terminal-2284145326-line-31)">
</text><text class="terminal-2284145326-r1" x="1464" y="800.8" textLength="12.2" clip-path="url(#terminal-2284145326-line-32)">
</text><text class="terminal-2284145326-r1" x="1464" y="825.2" textLength="12.2" clip-path="url(#terminal-2284145326-line-33)">
</text><text class="terminal-2284145326-r1" x="1464" y="849.6" textLength="12.2" clip-path="url(#terminal-2284145326-line-34)">
</text>
    </g>
    </g>
</svg>
