<svg class="rich-terminal" viewBox="0 0 1482 928.4" xmlns="http://www.w3.org/2000/svg">
    <!-- Generated with Rich https://www.textualize.io -->
    <style>

    @font-face {
        font-family: "Fira Code";
        src: local("FiraCode-Regular"),
                url("https://cdnjs.cloudflare.com/ajax/libs/firacode/6.2.0/woff2/FiraCode-Regular.woff2") format("woff2"),
                url("https://cdnjs.cloudflare.com/ajax/libs/firacode/6.2.0/woff/FiraCode-Regular.woff") format("woff");
        font-style: normal;
        font-weight: 400;
    }
    @font-face {
        font-family: "Fira Code";
        src: local("FiraCode-Bold"),
                url("https://cdnjs.cloudflare.com/ajax/libs/firacode/6.2.0/woff2/FiraCode-Bold.woff2") format("woff2"),
                url("https://cdnjs.cloudflare.com/ajax/libs/firacode/6.2.0/woff/FiraCode-Bold.woff") format("woff");
        font-style: bold;
        font-weight: 700;
    }

    .terminal-114574129-matrix {
        font-family: Fira Code, monospace;
        font-size: 20px;
        line-height: 24.4px;
        font-variant-east-asian: full-width;
    }

    .terminal-114574129-title {
        font-size: 18px;
        font-weight: bold;
        font-family: arial;
    }

    .terminal-114574129-r1 { fill: #c5c8c6 }
.terminal-114574129-r2 { fill: #0178d4 }
.terminal-114574129-r3 { fill: #fea62b;font-weight: bold }
.terminal-114574129-r4 { fill: #a7abaf }
.terminal-114574129-r5 { fill: #ddedf9;font-weight: bold }
.terminal-114574129-r6 { fill: #92c5ec;font-weight: bold }
.terminal-114574129-r7 { fill: #008000;font-weight: bold }
.terminal-114574129-r8 { fill: #e0e0e0 }
.terminal-114574129-r9 { fill: #a1a1a1 }
.terminal-114574129-r10 { fill: #008000 }
.terminal-114574129-r11 { fill: #7a8086 }
.terminal-114574129-r12 { fill: #6db2ff }
.terminal-114574129-r13 { fill: #004295 }
    </style>

    <defs>
    <clipPath id="terminal-114574129-clip-terminal">
      <rect x="0" y="0" width="1463.0" height="877.4" />
    </clipPath>
    <clipPath id="terminal-114574129-line-0">
    <rect x="0" y="1.5" width="1464" height="24.65"/>
            </clipPath>
<clipPath id="terminal-114574129-line-1">
    <rect x="0" y="25.9" width="1464" height="24.65"/>
            </clipPath>
<clipPath id="terminal-114574129-line-2">
    <rect x="0" y="50.3" width="1464" height="24.65"/>
            </clipPath>
<clipPath id="terminal-114574129-line-3">
    <rect x="0" y="74.7" width="1464" height="24.65"/>
            </clipPath>
<clipPath id="terminal-114574129-line-4">
    <rect x="0" y="99.1" width="1464" height="24.65"/>
            </clipPath>
<clipPath id="terminal-114574129-line-5">
    <rect x="0" y="123.5" width="1464" height="24.65"/>
            </clipPath>
<clipPath id="terminal-114574129-line-6">
    <rect x="0" y="147.9" width="1464" height="24.65"/>
            </clipPath>
<clipPath id="terminal-114574129-line-7">
    <rect x="0" y="172.3" width="1464" height="24.65"/>
            </clipPath>
<clipPath id="terminal-114574129-line-8">
    <rect x="0" y="196.7" width="1464" height="24.65"/>
            </clipPath>
<clipPath id="terminal-114574129-line-9">
    <rect x="0" y="221.1" width="1464" height="24.65"/>
            </clipPath>
<clipPath id="terminal-114574129-line-10">
    <rect x="0" y="245.5" width="1464" height="24.65"/>
            </clipPath>
<clipPath id="terminal-114574129-line-11">
    <rect x="0" y="269.9" width="1464" height="24.65"/>
            </clipPath>
<clipPath id="terminal-114574129-line-12">
    <rect x="0" y="294.3" width="1464" height="24.65"/>
            </clipPath>
<clipPath id="terminal-114574129-line-13">
    <rect x="0" y="318.7" width="1464" height="24.65"/>
            </clipPath>
<clipPath id="terminal-114574129-line-14">
    <rect x="0" y="343.1" width="1464" height="24.65"/>
            </clipPath>
<clipPath id="terminal-114574129-line-15">
    <rect x="0" y="367.5" width="1464" height="24.65"/>
            </clipPath>
<clipPath id="terminal-114574129-line-16">
    <rect x="0" y="391.9" width="1464" height="24.65"/>
            </clipPath>
<clipPath id="terminal-114574129-line-17">
    <rect x="0" y="416.3" width="1464" height="24.65"/>
            </clipPath>
<clipPath id="terminal-114574129-line-18">
    <rect x="0" y="440.7" width="1464" height="24.65"/>
            </clipPath>
<clipPath id="terminal-114574129-line-19">
    <rect x="0" y="465.1" width="1464" height="24.65"/>
            </clipPath>
<clipPath id="terminal-114574129-line-20">
    <rect x="0" y="489.5" width="1464" height="24.65"/>
            </clipPath>
<clipPath id="terminal-114574129-line-21">
    <rect x="0" y="513.9" width="1464" height="24.65"/>
            </clipPath>
<clipPath id="terminal-114574129-line-22">
    <rect x="0" y="538.3" width="1464" height="24.65"/>
            </clipPath>
<clipPath id="terminal-114574129-line-23">
    <rect x="0" y="562.7" width="1464" height="24.65"/>
            </clipPath>
<clipPath id="terminal-114574129-line-24">
    <rect x="0" y="587.1" width="1464" height="24.65"/>
            </clipPath>
<clipPath id="terminal-114574129-line-25">
    <rect x="0" y="611.5" width="1464" height="24.65"/>
            </clipPath>
<clipPath id="terminal-114574129-line-26">
    <rect x="0" y="635.9" width="1464" height="24.65"/>
            </clipPath>
<clipPath id="terminal-114574129-line-27">
    <rect x="0" y="660.3" width="1464" height="24.65"/>
            </clipPath>
<clipPath id="terminal-114574129-line-28">
    <rect x="0" y="684.7" width="1464" height="24.65"/>
            </clipPath>
<clipPath id="terminal-114574129-line-29">
    <rect x="0" y="709.1" width="1464" height="24.65"/>
            </clipPath>
<clipPath id="terminal-114574129-line-30">
    <rect x="0" y="733.5" width="1464" height="24.65"/>
            </clipPath>
<clipPath id="terminal-114574129-line-31">
    <rect x="0" y="757.9" width="1464" height="24.65"/>
            </clipPath>
<clipPath id="terminal-114574129-line-32">
    <rect x="0" y="782.3" width="1464" height="24.65"/>
            </clipPath>
<clipPath id="terminal-114574129-line-33">
    <rect x="0" y="806.7" width="1464" height="24.65"/>
            </clipPath>
<clipPath id="terminal-114574129-line-34">
    <rect x="0" y="831.1" width="1464" height="24.65"/>
            </clipPath>
    </defs>

    <rect fill="#292929" stroke="rgba(255,255,255,0.35)" stroke-width="1" x="1" y="1" width="1480" height="926.4" rx="8"/><text class="terminal-114574129-title" fill="#c5c8c6" text-anchor="middle" x="740" y="27">Anvil</text>
            <g transform="translate(26,22)">
            <circle cx="0" cy="0" r="7" fill="#ff5f57"/>
            <circle cx="22" cy="0" r="7" fill="#febc2e"/>
            <circle cx="44" cy="0" r="7" fill="#28c840"/>
            </g>
        
    <g transform="translate(9, 41)" clip-path="url(#terminal-114574129-clip-terminal)">
    <rect fill="#1e1e1e" x="0" y="1.5" width="1464" height="24.65" shape-rendering="crispEdges"/><rect fill="#1e1e1e" x="0" y="25.9" width="1464" height="24.65" shape-rendering="crispEdges"/><rect fill="#1e1e1e" x="0" y="50.3" width="1464" height="24.65" shape-rendering="crispEdges"/><rect fill="#1e1e1e" x="0" y="74.7" width="1464" height="24.65" shape-rendering="crispEdges"/><rect fill="#1e1e1e" x="0" y="99.1" width="1464" height="24.65" shape-rendering="crispEdges"/><rect fill="#1e1e1e" x="0" y="123.5" width="1464" height="24.65" shape-rendering="crispEdges"/><rect fill="#1e1e1e" x="0" y="147.9" width="1464" height="24.65" shape-rendering="crispEdges"/><rect fill="#1e1e1e" x="0" y="172.3" width="1464" height="24.65" shape-rendering="crispEdges"/><rect fill="#1e1e1e" x="0" y="196.7" width="1464" height="24.65" shape-rendering="crispEdges"/><rect fill="#1e1e1e" x="0" y="221.1" width="1464" height="24.65" shape-rendering="crispEdges"/><rect fill="#1e1e1e" x="0" y="245.5" width="244" height="24.65" shape-rendering="crispEdges"/><rect fill="#242f38" x="244" y="245.5" width="12.2" height="24.65" shape-rendering="crispEdges"/><rect fill="#242f38" x="256.2" y="245.5" width="951.6" height="24.65" shape-rendering="crispEdges"/><rect fill="#242f38" x="1207.8" y="245.5" width="12.2" height="24.65" shape-rendering="crispEdges"/><rect fill="#1e1e1e" x="1220" y="245.5" width="244" height="24.65" shape-rendering="crispEdges"/><rect fill="#1e1e1e" x="0" y="269.9" width="244" height="24.65" shape-rendering="crispEdges"/><rect fill="#242f38" x="244" y="269.9" width="12.2" height="24.65" shape-rendering="crispEdges"/><rect fill="#242f38" x="256.2" y="269.9" width="951.6" height="24.65" shape-rendering="crispEdges"/><rect fill="#242f38" x="1207.8" y="269.9" width="12.2" height="24.65" shape-rendering="crispEdges"/><rect fill="#1e1e1e" x="1220" y="269.9" width="244" height="24.65" shape-rendering="crispEdges"/><rect fill="#1e1e1e" x="0" y="294.3" width="244" height="24.65" shape-rendering="crispEdges"/><rect fill="#242f38" x="244" y="294.3" width="12.2" height="24.65" shape-rendering="crispEdges"/><rect fill="#242f38" x="256.2" y="294.3" width="24.4" height="24.65" shape-rendering="crispEdges"/><rect fill="#242f38" x="280.6" y="294.3" width="231.8" height="24.65" shape-rendering="crispEdges"/><rect fill="#242f38" x="512.4" y="294.3" width="671" height="24.65" shape-rendering="crispEdges"/><rect fill="#242f38" x="1183.4" y="294.3" width="24.4" height="24.65" shape-rendering="crispEdges"/><rect fill="#242f38" x="1207.8" y="294.3" width="12.2" height="24.65" shape-rendering="crispEdges"/><rect fill="#1e1e1e" x="1220" y="294.3" width="244" height="24.65" shape-rendering="crispEdges"/><rect fill="#1e1e1e" x="0" y="318.7" width="244" height="24.65" shape-rendering="crispEdges"/><rect fill="#242f38" x="244" y="318.7" width="12.2" height="24.65" shape-rendering="crispEdges"/><rect fill="#242f38" x="256.2" y="318.7" width="24.4" height="24.65" shape-rendering="crispEdges"/><rect fill="#242f38" x="280.6" y="318.7" width="902.8" height="24.65" shape-rendering="crispEdges"/><rect fill="#242f38" x="1183.4" y="318.7" width="24.4" height="24.65" shape-rendering="crispEdges"/><rect fill="#242f38" x="1207.8" y="318.7" width="12.2" height="24.65" shape-rendering="crispEdges"/><rect fill="#1e1e1e" x="1220" y="318.7" width="244" height="24.65" shape-rendering="crispEdges"/><rect fill="#1e1e1e" x="0" y="343.1" width="244" height="24.65" shape-rendering="crispEdges"/><rect fill="#242f38" x="244" y="343.1" width="12.2" height="24.65" shape-rendering="crispEdges"/><rect fill="#242f38" x="256.2" y="343.1" width="24.4" height="24.65" shape-rendering="crispEdges"/><rect fill="#242f38" x="280.6" y="343.1" width="902.8" height="24.65" shape-rendering="crispEdges"/><rect fill="#242f38" x="1183.4" y="343.1" width="24.4" height="24.65" shape-rendering="crispEdges"/><rect fill="#242f38" x="1207.8" y="343.1" width="12.2" height="24.65" shape-rendering="crispEdges"/><rect fill="#1e1e1e" x="1220" y="343.1" width="244" height="24.65" shape-rendering="crispEdges"/><rect fill="#1e1e1e" x="0" y="367.5" width="244" height="24.65" shape-rendering="crispEdges"/><rect fill="#242f38" x="244" y="367.5" width="12.2" height="24.65" shape-rendering="crispEdges"/><rect fill="#242f38" x="256.2" y="367.5" width="24.4" height="24.65" shape-rendering="crispEdges"/><rect fill="#0178d4" x="280.6" y="367.5" width="12.2" height="24.65" shape-rendering="crispEdges"/><rect fill="#0178d4" x="292.8" y="367.5" width="170.8" height="24.65" shape-rendering="crispEdges"/><rect fill="#0178d4" x="463.6" y="367.5" width="280.6" height="24.65" shape-rendering="crispEdges"/><rect fill="#0178d4" x="744.2" y="367.5" width="24.4" height="24.65" shape-rendering="crispEdges"/><rect fill="#0178d4" x="768.6" y="367.5" width="134.2" height="24.65" shape-rendering="crispEdges"/><rect fill="#0178d4" x="902.8" y="367.5" width="12.2" height="24.65" shape-rendering="crispEdges"/><rect fill="#0178d4" x="915" y="367.5" width="256.2" height="24.65" shape-rendering="crispEdges"/><rect fill="#0178d4" x="1171.2" y="367.5" width="12.2" height="24.65" shape-rendering="crispEdges"/><rect fill="#242f38" x="1183.4" y="367.5" width="24.4" height="24.65" shape-rendering="crispEdges"/><rect fill="#242f38" x="1207.8" y="367.5" width="12.2" height="24.65" shape-rendering="crispEdges"/><rect fill="#1e1e1e" x="1220" y="367.5" width="244" height="24.65" shape-rendering="crispEdges"/><rect fill="#1e1e1e" x="0" y="391.9" width="244" height="24.65" shape-rendering="crispEdges"/><rect fill="#242f38" x="244" y="391.9" width="12.2" height="24.65" shape-rendering="crispEdges"/><rect fill="#242f38" x="256.2" y="391.9" width="24.4" height="24.65" shape-rendering="crispEdges"/><rect fill="#272727" x="280.6" y="391.9" width="12.2" height="24.65" shape-rendering="crispEdges"/><rect fill="#272727" x="292.8" y="391.9" width="231.8" height="24.65" shape-rendering="crispEdges"/><rect fill="#272727" x="524.6" y="391.9" width="195.2" height="24.65" shape-rendering="crispEdges"/><rect fill="#272727" x="719.8" y="391.9" width="24.4" height="24.65" shape-rendering="crispEdges"/><rect fill="#272727" x="744.2" y="391.9" width="134.2" height="24.65" shape-rendering="crispEdges"/><rect fill="#272727" x="878.4" y="391.9" width="12.2" height="24.65" shape-rendering="crispEdges"/><rect fill="#272727" x="890.6" y="391.9" width="256.2" height="24.65" shape-rendering="crispEdges"/><rect fill="#272727" x="1146.8" y="391.9" width="24.4" height="24.65" shape-rendering="crispEdges"/><rect fill="#272727" x="1171.2" y="391.9" width="12.2" height="24.65" shape-rendering="crispEdges"/><rect fill="#242f38" x="1183.4" y="391.9" width="24.4" height="24.65" shape-rendering="crispEdges"/><rect fill="#242f38" x="1207.8" y="391.9" width="12.2" height="24.65" shape-rendering="crispEdges"/><rect fill="#1e1e1e" x="1220" y="391.9" width="244" height="24.65" shape-rendering="crispEdges"/><rect fill="#1e1e1e" x="0" y="416.3" width="244" height="24.65" shape-rendering="crispEdges"/><rect fill="#242f38" x="244" y="416.3" width="12.2" height="24.65" shape-rendering="crispEdges"/><rect fill="#242f38" x="256.2" y="416.3" width="24.4" height="24.65" shape-rendering="crispEdges"/><rect fill="#272727" x="280.6" y="416.3" width="12.2" height="24.65" shape-rendering="crispEdges"/><rect fill="#272727" x="292.8" y="416.3" width="268.4" height="24.65" shape-rendering="crispEdges"/><rect fill="#272727" x="561.2" y="416.3" width="109.8" height="24.65" shape-rendering="crispEdges"/><rect fill="#272727" x="671" y="416.3" width="24.4" height="24.65" shape-rendering="crispEdges"/><rect fill="#272727" x="695.4" y="416.3" width="280.6" height="24.65" shape-rendering="crispEdges"/><rect fill="#272727" x="976" y="416.3" width="195.2" height="24.65" shape-rendering="crispEdges"/><rect fill="#272727" x="1171.2" y="416.3" width="12.2" height="24.65" shape-rendering="crispEdges"/><rect fill="#242f38" x="1183.4" y="416.3" width="24.4" height="24.65" shape-rendering="crispEdges"/><rect fill="#242f38" x="1207.8" y="416.3" width="12.2" height="24.65" shape-rendering="crispEdges"/><rect fill="#1e1e1e" x="1220" y="416.3" width="244" height="24.65" shape-rendering="crispEdges"/><rect fill="#1e1e1e" x="0" y="440.7" width="244" height="24.65" shape-rendering="crispEdges"/><rect fill="#242f38" x="244" y="440.7" width="12.2" height="24.65" shape-rendering="crispEdges"/><rect fill="#242f38" x="256.2" y="440.7" width="24.4" height="24.65" shape-rendering="crispEdges"/><rect fill="#242f38" x="280.6" y="440.7" width="902.8" height="24.65" shape-rendering="crispEdges"/><rect fill="#242f38" x="1183.4" y="440.7" width="24.4" height="24.65" shape-rendering="crispEdges"/><rect fill="#242f38" x="1207.8" y="440.7" width="12.2" height="24.65" shape-rendering="crispEdges"/><rect fill="#1e1e1e" x="1220" y="440.7" width="244" height="24.65" shape-rendering="crispEdges"/><rect fill="#1e1e1e" x="0" y="465.1" width="244" height="24.65" shape-rendering="crispEdges"/><rect fill="#242f38" x="244" y="465.1" width="12.2" height="24.65" shape-rendering="crispEdges"/><rect fill="#242f38" x="256.2" y="465.1" width="24.4" height="24.65" shape-rendering="crispEdges"/><rect fill="#242f38" x="280.6" y="465.1" width="805.2" height="24.65" shape-rendering="crispEdges"/><rect fill="#242f38" x="1085.8" y="465.1" width="97.6" height="24.65" shape-rendering="crispEdges"/><rect fill="#242f38" x="1183.4" y="465.1" width="24.4" height="24.65" shape-rendering="crispEdges"/><rect fill="#242f38" x="1207.8" y="465.1" width="12.2" height="24.65" shape-rendering="crispEdges"/><rect fill="#1e1e1e" x="1220" y="465.1" width="244" height="24.65" shape-rendering="crispEdges"/><rect fill="#1e1e1e" x="0" y="489.5" width="244" height="24.65" shape-rendering="crispEdges"/><rect fill="#242f38" x="244" y="489.5" width="12.2" height="24.65" shape-rendering="crispEdges"/><rect fill="#242f38" x="256.2" y="489.5" width="24.4" height="24.65" shape-rendering="crispEdges"/><rect fill="#242f38" x="280.6" y="489.5" width="902.8" height="24.65" shape-rendering="crispEdges"/><rect fill="#242f38" x="1183.4" y="489.5" width="24.4" height="24.65" shape-rendering="crispEdges"/><rect fill="#242f38" x="1207.8" y="489.5" width="12.2" height="24.65" shape-rendering="crispEdges"/><rect fill="#1e1e1e" x="1220" y="489.5" width="244" height="24.65" shape-rendering="crispEdges"/><rect fill="#1e1e1e" x="0" y="513.9" width="244" height="24.65" shape-rendering="crispEdges"/><rect fill="#242f38" x="244" y="513.9" width="12.2" height="24.65" shape-rendering="crispEdges"/><rect fill="#242f38" x="256.2" y="513.9" width="24.4" height="24.65" shape-rendering="crispEdges"/><rect fill="#0178d4" x="280.6" y="513.9" width="902.8" height="24.65" shape-rendering="crispEdges"/><rect fill="#242f38" x="1183.4" y="513.9" width="24.4" height="24.65" shape-rendering="crispEdges"/><rect fill="#242f38" x="1207.8" y="513.9" width="12.2" height="24.65" shape-rendering="crispEdges"/><rect fill="#1e1e1e" x="1220" y="513.9" width="244" height="24.65" shape-rendering="crispEdges"/><rect fill="#1e1e1e" x="0" y="538.3" width="244" height="24.65" shape-rendering="crispEdges"/><rect fill="#242f38" x="244" y="538.3" width="12.2" height="24.65" shape-rendering="crispEdges"/><rect fill="#242f38" x="256.2" y="538.3" width="24.4" height="24.65" shape-rendering="crispEdges"/><rect fill="#0178d4" x="280.6" y="538.3" width="353.8" height="24.65" shape-rendering="crispEdges"/><rect fill="#0178d4" x="634.4" y="538.3" width="195.2" height="24.65" shape-rendering="crispEdges"/><rect fill="#0178d4" x="829.6" y="538.3" width="353.8" height="24.65" shape-rendering="crispEdges"/><rect fill="#242f38" x="1183.4" y="538.3" width="24.4" height="24.65" shape-rendering="crispEdges"/><rect fill="#242f38" x="1207.8" y="538.3" width="12.2" height="24.65" shape-rendering="crispEdges"/><rect fill="#1e1e1e" x="1220" y="538.3" width="244" height="24.65" shape-rendering="crispEdges"/><rect fill="#1e1e1e" x="0" y="562.7" width="244" height="24.65" shape-rendering="crispEdges"/><rect fill="#242f38" x="244" y="562.7" width="12.2" height="24.65" shape-rendering="crispEdges"/><rect fill="#242f38" x="256.2" y="562.7" width="24.4" height="24.65" shape-rendering="crispEdges"/><rect fill="#0178d4" x="280.6" y="562.7" width="902.8" height="24.65" shape-rendering="crispEdges"/><rect fill="#242f38" x="1183.4" y="562.7" width="24.4" height="24.65" shape-rendering="crispEdges"/><rect fill="#242f38" x="1207.8" y="562.7" width="12.2" height="24.65" shape-rendering="crispEdges"/><rect fill="#1e1e1e" x="1220" y="562.7" width="244" height="24.65" shape-rendering="crispEdges"/><rect fill="#1e1e1e" x="0" y="587.1" width="244" height="24.65" shape-rendering="crispEdges"/><rect fill="#242f38" x="244" y="587.1" width="12.2" height="24.65" shape-rendering="crispEdges"/><rect fill="#242f38" x="256.2" y="587.1" width="951.6" height="24.65" shape-rendering="crispEdges"/><rect fill="#242f38" x="1207.8" y="587.1" width="12.2" height="24.65" shape-rendering="crispEdges"/><rect fill="#1e1e1e" x="1220" y="587.1" width="244" height="24.65" shape-rendering="crispEdges"/><rect fill="#1e1e1e" x="0" y="611.5" width="244" height="24.65" shape-rendering="crispEdges"/><rect fill="#242f38" x="244" y="611.5" width="12.2" height="24.65" shape-rendering="crispEdges"/><rect fill="#242f38" x="256.2" y="611.5" width="951.6" height="24.65" shape-rendering="crispEdges"/><rect fill="#242f38" x="1207.8" y="611.5" width="12.2" height="24.65" shape-rendering="crispEdges"/><rect fill="#1e1e1e" x="1220" y="611.5" width="244" height="24.65" shape-rendering="crispEdges"/><rect fill="#1e1e1e" x="0" y="635.9" width="1464" height="24.65" shape-rendering="crispEdges"/><rect fill="#1e1e1e" x="0" y="660.3" width="1464" height="24.65" shape-rendering="crispEdges"/><rect fill="#1e1e1e" x="0" y="684.7" width="1464" height="24.65" shape-rendering="crispEdges"/><rect fill="#1e1e1e" x="0" y="709.1" width="1464" height="24.65" shape-rendering="crispEdges"/><rect fill="#1e1e1e" x="0" y="733.5" width="1464" height="24.65" shape-rendering="crispEdges"/><rect fill="#1e1e1e" x="0" y="757.9" width="1464" height="24.65" shape-rendering="crispEdges"/><rect fill="#1e1e1e" x="0" y="782.3" width="1464" height="24.65" shape-rendering="crispEdges"/><rect fill="#1e1e1e" x="0" y="806.7" width="1464" height="24.65" shape-rendering="crispEdges"/><rect fill="#1e1e1e" x="0" y="831.1" width="1464" height="24.65" shape-rendering="crispEdges"/><rect fill="#1e1e1e" x="0" y="855.5" width="1464" height="24.65" shape-rendering="crispEdges"/>
    <g class="terminal-114574129-matrix">
    <text class="terminal-114574129-r1" x="1464" y="20" textLength="12.2" clip-path="url(#terminal-114574129-line-0)">
</text><text class="terminal-114574129-r1" x="1464" y="44.4" textLength="12.2" clip-path="url(#terminal-114574129-line-1)">
</text><text class="terminal-114574129-r1" x="1464" y="68.8" textLength="12.2" clip-path="url(#terminal-114574129-line-2)">
</text><text class="terminal-114574129-r1" x="1464" y="93.2" textLength="12.2" clip-path="url(#terminal-114574129-line-3)">
</text><text class="terminal-114574129-r1" x="1464" y="117.6" textLength="12.2" clip-path="url(#terminal-114574129-line-4)">
</text><text class="terminal-114574129-r1" x="1464" y="142" textLength="12.2" clip-path="url(#terminal-114574129-line-5)">
</text><text class="terminal-114574129-r1" x="1464" y="166.4" textLength="12.2" clip-path="url(#terminal-114574129-line-6)">
</text><text class="terminal-114574129-r1" x="1464" y="190.8" textLength="12.2" clip-path="url(#terminal-114574129-line-7)">
</text><text class="terminal-114574129-r1" x="1464" y="215.2" textLength="12.2" clip-path="url(#terminal-114574129-line-8)">
</text><text class="terminal-114574129-r1" x="1464" y="239.6" textLength="12.2" clip-path="url(#terminal-114574129-line-9)">
</text><text class="terminal-114574129-r2" x="244" y="264" textLength="12.2" clip-path="url(#terminal-114574129-line-10)">█</text><text class="terminal-114574129-r2" x="256.2" y="264" textLength="951.6" clip-path="url(#terminal-114574129-line-10)">▀▀▀▀▀▀▀▀▀▀▀▀▀▀▀▀▀▀▀▀▀▀▀▀▀▀▀▀▀▀▀▀▀▀▀▀▀▀▀▀▀▀▀▀▀▀▀▀▀▀▀▀▀▀▀▀▀▀▀▀▀▀▀▀▀▀▀▀▀▀▀▀▀▀▀▀▀▀</text><text class="terminal-114574129-r2" x="1207.8" y="264" textLength="12.2" clip-path="url(#terminal-114574129-line-10)">█</text><text class="terminal-114574129-r1" x="1464" y="264" textLength="12.2" clip-path="url(#terminal-114574129-line-10)">
</text><text class="terminal-114574129-r2" x="244" y="288.4" textLength="12.2" clip-path="url(#terminal-114574129-line-11)">█</text><text class="terminal-114574129-r2" x="1207.8" y="288.4" textLength="12.2" clip-path="url(#terminal-114574129-line-11)">█</text><text class="terminal-114574129-r1" x="1464" y="288.4" textLength="12.2" clip-path="url(#terminal-114574129-line-11)">
</text><text class="terminal-114574129-r2" x="244" y="312.8" textLength="12.2" clip-path="url(#terminal-114574129-line-12)">█</text><text class="terminal-114574129-r3" x="280.6" y="312.8" textLength="219.6" clip-path="url(#terminal-114574129-line-12)">Welcome&#160;to&#160;Anvil&#160;🔨</text><text class="terminal-114574129-r2" x="1207.8" y="312.8" textLength="12.2" clip-path="url(#terminal-114574129-line-12)">█</text><text class="terminal-114574129-r1" x="1464" y="312.8" textLength="12.2" clip-path="url(#terminal-114574129-line-12)">
</text><text class="terminal-114574129-r2" x="244" y="337.2" textLength="12.2" clip-path="url(#terminal-114574129-line-13)">█</text><text class="terminal-114574129-r4" x="280.6" y="337.2" textLength="902.8" clip-path="url(#terminal-114574129-line-13)">Pick&#160;which&#160;coding&#160;agent&#160;to&#160;use&#160;as&#160;your&#160;default.&#160;You&#160;can&#160;switch&#160;any&#160;time&#160;vi</text><text class="terminal-114574129-r2" x="1207.8" y="337.2" textLength="12.2" clip-path="url(#terminal-114574129-line-13)">█</text><text class="terminal-114574129-r1" x="1464" y="337.2" textLength="12.2" clip-path="url(#terminal-114574129-line-13)">
</text><text class="terminal-114574129-r2" x="244" y="361.6" textLength="12.2" clip-path="url(#terminal-114574129-line-14)">█</text><text class="terminal-114574129-r2" x="1207.8" y="361.6" textLength="12.2" clip-path="url(#terminal-114574129-line-14)">█</text><text class="terminal-114574129-r1" x="1464" y="361.6" textLength="12.2" clip-path="url(#terminal-114574129-line-14)">
</text><text class="terminal-114574129-r2" x="244" y="386" textLength="12.2" clip-path="url(#terminal-114574129-line-15)">█</text><text class="terminal-114574129-r5" x="292.8" y="386" textLength="170.8" clip-path="url(#terminal-114574129-line-15)">●&#160;Claude&#160;Code&#160;</text><text class="terminal-114574129-r6" x="463.6" y="386" textLength="280.6" clip-path="url(#terminal-114574129-line-15)">(2.1.148&#160;(Claude&#160;Code))</text><text class="terminal-114574129-r7" x="768.6" y="386" textLength="134.2" clip-path="url(#terminal-114574129-line-15)">✓&#160;installed</text><text class="terminal-114574129-r6" x="915" y="386" textLength="256.2" clip-path="url(#terminal-114574129-line-15)">(auth&#160;status&#160;unknown)</text><text class="terminal-114574129-r2" x="1207.8" y="386" textLength="12.2" clip-path="url(#terminal-114574129-line-15)">█</text><text class="terminal-114574129-r1" x="1464" y="386" textLength="12.2" clip-path="url(#terminal-114574129-line-15)">
</text><text class="terminal-114574129-r2" x="244" y="410.4" textLength="12.2" clip-path="url(#terminal-114574129-line-16)">█</text><text class="terminal-114574129-r8" x="292.8" y="410.4" textLength="231.8" clip-path="url(#terminal-114574129-line-16)">●&#160;OpenAI&#160;Codex&#160;CLI&#160;</text><text class="terminal-114574129-r9" x="524.6" y="410.4" textLength="195.2" clip-path="url(#terminal-114574129-line-16)">(0.1.2504161551)</text><text class="terminal-114574129-r10" x="744.2" y="410.4" textLength="134.2" clip-path="url(#terminal-114574129-line-16)">✓&#160;installed</text><text class="terminal-114574129-r9" x="890.6" y="410.4" textLength="256.2" clip-path="url(#terminal-114574129-line-16)">(auth&#160;status&#160;unknown)</text><text class="terminal-114574129-r2" x="1207.8" y="410.4" textLength="12.2" clip-path="url(#terminal-114574129-line-16)">█</text><text class="terminal-114574129-r1" x="1464" y="410.4" textLength="12.2" clip-path="url(#terminal-114574129-line-16)">
</text><text class="terminal-114574129-r2" x="244" y="434.8" textLength="12.2" clip-path="url(#terminal-114574129-line-17)">█</text><text class="terminal-114574129-r8" x="292.8" y="434.8" textLength="268.4" clip-path="url(#terminal-114574129-line-17)">●&#160;Mock&#160;(offline&#160;echo)&#160;</text><text class="terminal-114574129-r9" x="561.2" y="434.8" textLength="109.8" clip-path="url(#terminal-114574129-line-17)">(builtin)</text><text class="terminal-114574129-r10" x="695.4" y="434.8" textLength="280.6" clip-path="url(#terminal-114574129-line-17)">✓&#160;installed&#160;+&#160;logged&#160;in</text><text class="terminal-114574129-r2" x="1207.8" y="434.8" textLength="12.2" clip-path="url(#terminal-114574129-line-17)">█</text><text class="terminal-114574129-r1" x="1464" y="434.8" textLength="12.2" clip-path="url(#terminal-114574129-line-17)">
</text><text class="terminal-114574129-r2" x="244" y="459.2" textLength="12.2" clip-path="url(#terminal-114574129-line-18)">█</text><text class="terminal-114574129-r2" x="1207.8" y="459.2" textLength="12.2" clip-path="url(#terminal-114574129-line-18)">█</text><text class="terminal-114574129-r1" x="1464" y="459.2" textLength="12.2" clip-path="url(#terminal-114574129-line-18)">
</text><text class="terminal-114574129-r2" x="244" y="483.6" textLength="12.2" clip-path="url(#terminal-114574129-line-19)">█</text><text class="terminal-114574129-r11" x="280.6" y="483.6" textLength="805.2" clip-path="url(#terminal-114574129-line-19)">↑/↓&#160;select&#160;·&#160;Enter&#160;or&#160;click&#160;Use&#160;·&#160;Esc&#160;to&#160;skip&#160;(defaults&#160;to&#160;claude)</text><text class="terminal-114574129-r2" x="1207.8" y="483.6" textLength="12.2" clip-path="url(#terminal-114574129-line-19)">█</text><text class="terminal-114574129-r1" x="1464" y="483.6" textLength="12.2" clip-path="url(#terminal-114574129-line-19)">
</text><text class="terminal-114574129-r2" x="244" y="508" textLength="12.2" clip-path="url(#terminal-114574129-line-20)">█</text><text class="terminal-114574129-r2" x="1207.8" y="508" textLength="12.2" clip-path="url(#terminal-114574129-line-20)">█</text><text class="terminal-114574129-r1" x="1464" y="508" textLength="12.2" clip-path="url(#terminal-114574129-line-20)">
</text><text class="terminal-114574129-r2" x="244" y="532.4" textLength="12.2" clip-path="url(#terminal-114574129-line-21)">█</text><text class="terminal-114574129-r12" x="280.6" y="532.4" textLength="902.8" clip-path="url(#terminal-114574129-line-21)">▔▔▔▔▔▔▔▔▔▔▔▔▔▔▔▔▔▔▔▔▔▔▔▔▔▔▔▔▔▔▔▔▔▔▔▔▔▔▔▔▔▔▔▔▔▔▔▔▔▔▔▔▔▔▔▔▔▔▔▔▔▔▔▔▔▔▔▔▔▔▔▔▔▔</text><text class="terminal-114574129-r2" x="1207.8" y="532.4" textLength="12.2" clip-path="url(#terminal-114574129-line-21)">█</text><text class="terminal-114574129-r1" x="1464" y="532.4" textLength="12.2" clip-path="url(#terminal-114574129-line-21)">
</text><text class="terminal-114574129-r2" x="244" y="556.8" textLength="12.2" clip-path="url(#terminal-114574129-line-22)">█</text><text class="terminal-114574129-r5" x="634.4" y="556.8" textLength="195.2" clip-path="url(#terminal-114574129-line-22)">&#160;Use&#160;this&#160;agent&#160;</text><text class="terminal-114574129-r2" x="1207.8" y="556.8" textLength="12.2" clip-path="url(#terminal-114574129-line-22)">█</text><text class="terminal-114574129-r1" x="1464" y="556.8" textLength="12.2" clip-path="url(#terminal-114574129-line-22)">
</text><text class="terminal-114574129-r2" x="244" y="581.2" textLength="12.2" clip-path="url(#terminal-114574129-line-23)">█</text><text class="terminal-114574129-r13" x="280.6" y="581.2" textLength="902.8" clip-path="url(#terminal-114574129-line-23)">▁▁▁▁▁▁▁▁▁▁▁▁▁▁▁▁▁▁▁▁▁▁▁▁▁▁▁▁▁▁▁▁▁▁▁▁▁▁▁▁▁▁▁▁▁▁▁▁▁▁▁▁▁▁▁▁▁▁▁▁▁▁▁▁▁▁▁▁▁▁▁▁▁▁</text><text class="terminal-114574129-r2" x="1207.8" y="581.2" textLength="12.2" clip-path="url(#terminal-114574129-line-23)">█</text><text class="terminal-114574129-r1" x="1464" y="581.2" textLength="12.2" clip-path="url(#terminal-114574129-line-23)">
</text><text class="terminal-114574129-r2" x="244" y="605.6" textLength="12.2" clip-path="url(#terminal-114574129-line-24)">█</text><text class="terminal-114574129-r2" x="1207.8" y="605.6" textLength="12.2" clip-path="url(#terminal-114574129-line-24)">█</text><text class="terminal-114574129-r1" x="1464" y="605.6" textLength="12.2" clip-path="url(#terminal-114574129-line-24)">
</text><text class="terminal-114574129-r2" x="244" y="630" textLength="12.2" clip-path="url(#terminal-114574129-line-25)">█</text><text class="terminal-114574129-r2" x="256.2" y="630" textLength="951.6" clip-path="url(#terminal-114574129-line-25)">▄▄▄▄▄▄▄▄▄▄▄▄▄▄▄▄▄▄▄▄▄▄▄▄▄▄▄▄▄▄▄▄▄▄▄▄▄▄▄▄▄▄▄▄▄▄▄▄▄▄▄▄▄▄▄▄▄▄▄▄▄▄▄▄▄▄▄▄▄▄▄▄▄▄▄▄▄▄</text><text class="terminal-114574129-r2" x="1207.8" y="630" textLength="12.2" clip-path="url(#terminal-114574129-line-25)">█</text><text class="terminal-114574129-r1" x="1464" y="630" textLength="12.2" clip-path="url(#terminal-114574129-line-25)">
</text><text class="terminal-114574129-r1" x="1464" y="654.4" textLength="12.2" clip-path="url(#terminal-114574129-line-26)">
</text><text class="terminal-114574129-r1" x="1464" y="678.8" textLength="12.2" clip-path="url(#terminal-114574129-line-27)">
</text><text class="terminal-114574129-r1" x="1464" y="703.2" textLength="12.2" clip-path="url(#terminal-114574129-line-28)">
</text><text class="terminal-114574129-r1" x="1464" y="727.6" textLength="12.2" clip-path="url(#terminal-114574129-line-29)">
</text><text class="terminal-114574129-r1" x="1464" y="752" textLength="12.2" clip-path="url(#terminal-114574129-line-30)">
</text><text class="terminal-114574129-r1" x="1464" y="776.4" textLength="12.2" clip-path="url(#terminal-114574129-line-31)">
</text><text class="terminal-114574129-r1" x="1464" y="800.8" textLength="12.2" clip-path="url(#terminal-114574129-line-32)">
</text><text class="terminal-114574129-r1" x="1464" y="825.2" textLength="12.2" clip-path="url(#terminal-114574129-line-33)">
</text><text class="terminal-114574129-r1" x="1464" y="849.6" textLength="12.2" clip-path="url(#terminal-114574129-line-34)">
</text>
    </g>
    </g>
</svg>
